<?xml version="1.0" encoding="utf-8"?>
<!-- Generator: Adobe Adobe Illustrator 29.2.0, SVG Export Plug-In . SVG Version: 6.00 Build 0)  -->
<svg version="1.1" id="Layer_1" xmlns="http://www.w3.org/2000/svg" xmlns:xlink="http://www.w3.org/1999/xlink" x="0px" y="0px"
	 viewBox="0 0 1920 1080" style="enable-background:new 0 0 1920 1080;" xml:space="preserve">
<style type="text/css">
	.st0{fill:#FFFFFF;}
	.st1{fill:#050304;}
</style>
<polygon class="st0" points="287.52,377.74 295.11,608.34 686.28,609.51 693.78,392.03 295.11,377.74 "/>
<path class="st0" d="M1482.08,413.73v-8.95h20.53c0.09,1.22,0.28,2.53,0.28,3.84c0,18.61,0,37.21,0,55.82
	c0,5.2-0.89,10.26-2.48,15.19c-3.61,11.01-11.67,17.39-22.59,19.64c-15.89,3.23-31.5,2.11-46.45-4.83c-0.75-0.37-1.45-0.84-2.53-1.5
	c2.39-5.2,4.73-10.26,7.17-15.56c1.73,0.84,3.09,1.5,4.5,2.11c8.53,3.66,17.25,5.62,26.62,3.94c9.61-1.73,13.64-7.5,14.81-16.59
	c0.23-1.69,0-3.42-0.8-5.81c-0.52,0.89-0.94,1.87-1.59,2.58c-11.2,12.23-28.59,10.55-38.85,4.27c-8.81-5.39-13.69-13.36-15.09-23.43
	c-1.78-12.37,0.66-23.58,10.03-32.57c11.06-10.64,31.26-12.09,43.31-0.75c0.84,0.8,1.78,1.55,3.09,2.62H1482.08z M1446.6,438.06
	c-0.42,8.62,6.37,17.01,17.53,16.92c11.2-0.09,18.09-7.5,17.95-17.15c-0.14-11.53-9.47-16.97-18.19-16.97
	C1455.64,420.86,1446.08,427.23,1446.6,438.06z"/>
<path class="st0" d="M1163.27,382.05c0.61,0,1.27-0.14,1.92-0.14c6.19,0,12.37,0,19.12,0v37.87h38.67V382.1c7.36,0,14.2,0,21.04,0
	c0.98,4.22,1.41,78.74,0.52,96.22c-3.47,0.8-7.08,0.28-10.64,0.37c-3.42,0.09-6.84,0-10.69,0v-38.43c-6.7,0-13.03-0.05-19.31-0.09
	c-6.23,0-12.42,0-18.84,0c-1.27,3.19-0.42,6.47-0.61,9.66c-0.14,3.09,0,6.19,0,9.33v9.84c0,3.05,0,6.14,0,9.47h-20.95
	c-0.89-3.47-1.12-90.27-0.19-96.46L1163.27,382.05z"/>
<path class="st0" d="M886.93,470.07v8.39h-21.14V377.93c3.47-0.05,6.84-0.14,10.22-0.19c3.42,0,6.84,0,10.83,0
	c0.19,6.19,0.09,12.14,0.09,18.14c0,5.86,0,11.72,0,18.14c0.98-0.84,1.64-1.31,2.16-1.87c10.55-11.53,27.28-11.11,38.71-3.52
	c9.19,6.09,13.69,15.05,15.23,25.78c1.31,9.05,0.47,17.86-3.28,26.15c-7.59,16.92-26.06,23.34-41.34,17.25
	c-3.28-1.31-6.05-3.8-9.05-5.76C888.66,471.57,888.1,471.01,886.93,470.07L886.93,470.07z M886.79,441.81
	c-0.23,4.03,0.75,7.78,2.72,11.3c3.37,5.95,8.76,9.09,15.28,8.86c6.94-0.23,12.37-3.84,15.33-10.5c2.72-6.14,2.86-12.33,0.47-18.51
	c-2.67-6.84-7.69-11.01-15.05-11.53c-6.7-0.47-11.9,2.39-15.61,8.11C887.49,433.33,886.6,437.4,886.79,441.81z"/>
<path class="st0" d="M1180.24,607.73h-20.53c-0.14-2.72-0.23-5.25-0.38-8.39c-1.27,0.84-2.3,1.31-3.05,2.06
	c-13.36,13.17-34.87,8.67-44.9-3.94c-7.78-9.75-9.66-21.09-8.25-33.09c0.98-8.53,4.31-16.12,10.36-22.5
	c10.97-11.53,32.15-12.51,42.23-2.39c0.8,0.8,1.92,1.36,3.66,2.53c0.05-4.5,0.14-8.16,0.14-11.86c0-3.8,0-7.59,0-11.39
	c0-3.8,0-7.5,0-11.44h20.76v100.35L1180.24,607.73z M1124.28,569.95c0,6.19,0.7,9.23,3.19,13.17c6.42,10.31,21.37,10.78,28.26,0.75
	c4.97-7.26,5.44-15.14,1.83-23.01c-5.48-11.86-20.06-14.01-28.5-4.31c-3.42,3.89-5.06,8.53-4.73,13.4H1124.28z"/>
<path class="st0" d="M774.02,478.6h-21.93c13.87-32.57,27.61-64.73,41.34-97.02h20.01c13.64,31.96,27.42,64.21,41.29,96.83h-22.5
	c-2.77-6.66-5.72-13.73-8.76-21.04h-40.64C779.97,464.21,777.02,471.29,774.02,478.6z M815.55,437.59
	c-4.03-9.8-8.01-19.5-12.42-30.09c-2.81,6.84-5.25,12.65-7.64,18.47c-1.59,3.94-3.19,7.83-4.92,12.19c8.06,0,15.61,0,23.2,0
	c0.47,0,0.94-0.28,1.83-0.56H815.55z"/>
<path class="st0" d="M760.52,511.27h73.35c0.23,6.37,0.09,12.8,0.09,19.59h-51.74v20.2h45.28v19.59h-45.42v37.07h-21
	C760.06,603.51,759.63,533.06,760.52,511.27L760.52,511.27z"/>
<path class="st0" d="M884.07,532.5c15,0.33,27,6.14,34.78,19.36c7.5,12.7,6.56,29.43-2.34,41.71c-13.26,18.23-42,21.28-59.38,6.8
	c-19.97-16.64-17.44-47.95,3.94-61.45C868.09,534.47,875.73,532.31,884.07,532.5z M902.68,571.17c0-4.78-0.66-7.31-3.05-11.2
	c-4.08-6.66-10.12-9.47-17.86-8.91c-7.41,0.56-12.42,4.41-15.47,11.01c-1.64,3.56-1.69,7.36-1.45,11.11
	c0.8,12.8,13.36,20.95,25.59,16.92c6.7-2.25,12.51-9.37,12.28-18.94H902.68z"/>
<path class="st0" d="M1450.16,570.89c1.17,19.83-16.22,37.68-37.17,38.48c-12.56,0.47-23.48-2.86-32.34-11.95
	c-15.33-15.65-13.59-42.14,3.42-55.96c15.28-12.42,39.75-12.05,54.65,1.64C1445.94,549.75,1450.16,559.73,1450.16,570.89
	L1450.16,570.89z M1429.73,571.73c-0.52-2.67-0.66-5.48-1.59-8.01c-2.53-6.66-7.08-11.34-14.48-12.47
	c-7.78-1.17-14.48,0.8-18.98,7.55c-4.73,7.12-4.83,16.26,0,23.81c6.61,10.45,21.23,10.41,28.07,4.17c4.45-4.08,6.61-9.05,7.03-15.09
	L1429.73,571.73z"/>
<path class="st0" d="M958.13,534.09c0,13.26,0,26.2,0,39.09c0,1.87,0,3.8,0.23,5.67c0.7,6.14,4.59,10.31,9.94,10.83
	c7.36,0.75,12.09-2.02,14.06-8.44c0.66-2.11,0.89-4.36,0.94-6.56c0.09-11.72,0-23.48,0-35.2c0-1.69,0-3.42,0-5.39h20.81
	c0.8,3.47,0.98,67.45,0.09,73.63c-3.28,0.05-6.66,0.14-10.03,0.14c-3.42,0-6.84,0-10.69,0v-9.66c-1.97,1.87-3.23,3.23-4.59,4.45
	c-10.5,9.75-28.22,8.3-36.23-1.59c-4.45-5.48-6-11.86-6-18.75c0-11.2,0-22.4,0-33.65c0-4.78,0-9.61,0-14.67h21.47L958.13,534.09z"/>
<path class="st0" d="M1485.17,607.63h-21v-73.59c3.19-0.37,6.61-0.14,9.98-0.19c3.42,0,6.89,0,10.83,0v9.94
	c2.34-2.34,3.84-3.84,5.34-5.3c8.95-8.72,27.65-7.87,35.48,1.92c3.8,4.78,5.91,10.22,6,16.12c0.23,16.87,0.09,33.79,0.09,50.9
	c-3.47,0.89-6.94,0.33-10.31,0.42c-3.42,0.09-6.84,0-10.55,0c-0.19-1.55-0.47-2.67-0.47-3.8c0-11.72,0.05-23.48-0.05-35.2
	c0-3.05-0.28-6.23-1.12-9.14c-1.55-5.3-5.2-7.69-10.83-7.73c-6.37-0.09-10.45,2.25-12.14,7.5c-0.8,2.58-1.12,5.39-1.17,8.11
	c-0.14,11.58-0.05,23.11-0.05,34.68v5.3L1485.17,607.63z"/>
<path class="st0" d="M1089.5,607.73h-20.9c-0.09-1.41-0.19-2.72-0.23-4.03c0-12.09,0-24.14-0.05-36.23c0-2.39-0.38-4.83-0.94-7.12
	c-1.31-5.34-4.92-8.11-10.36-8.34c-6.7-0.28-10.92,1.97-12.7,7.41c-0.8,2.39-1.08,5.02-1.12,7.59c-0.09,11.72-0.05,23.48-0.05,35.2
	v5.53c-7.31,0.42-14.11,0.09-21.18,0.23v-73.82h20.9c0.19,2.58,0.33,5.2,0.56,8.44c1.69-1.55,3-2.67,4.17-3.84
	c8.25-8.16,22.73-7.17,29.53-3.47c6.89,3.8,10.36,9.89,11.81,17.29c0.52,2.67,0.8,5.44,0.8,8.2c0.09,14.86,0,29.67,0,44.53
	c0,0.66-0.19,1.31-0.33,2.53L1089.5,607.73z"/>
<path class="st0" d="M1010.81,455.73c3.98,3.52,7.87,6.94,11.95,10.55c-5.34,6.84-12.09,11.25-20.48,12.84
	c-12.09,2.3-23.67,1.22-33.98-6.33c-7.87-5.76-12.33-13.64-14.01-23.2c-1.64-9.42-0.56-18.47,3.94-26.95
	c6.66-12.51,17.15-18.84,31.22-19.31c11.53-0.37,21.33,3.37,28.59,12.65c4.45,5.67,6.84,12.28,7.69,19.36
	c0.52,4.36,1.87,8.81-0.28,13.69h-50.38c3.89,15.84,19.22,18.7,35.67,6.7H1010.81z M1005.18,435.53
	c-0.94-9.61-7.41-15.84-15.37-15.33c-8.2,0.52-14.34,6.94-14.48,15.19c0.66,0,1.31,0.14,1.97,0.14
	C986.43,435.53,995.57,435.53,1005.18,435.53z"/>
<path class="st0" d="M1261.42,607.68h-20.2c-0.19-2.16-0.37-4.12-0.61-6.61c-1.69,1.17-3.09,2.25-4.59,3.19
	c-10.36,6.42-21.14,6.89-31.87,1.31c-8.62-4.5-11.58-12.47-10.87-21.65c0.7-9.47,5.91-16.03,14.95-19.08
	c9.56-3.28,19.31-2.91,29.01-0.52c0.98,0.23,1.97,0.37,2.95,0.61c1.12-5.91-1.64-10.78-7.08-12.51c-5.02-1.59-10.22-1.55-15.33-0.61
	c-4.22,0.8-8.3,2.06-12.89,3.19c-0.84-2.48-1.78-5.16-2.67-7.87c-0.84-2.58-1.64-5.2-2.48-8.01c4.5-2.44,9.05-3.7,13.73-4.69
	c8.67-1.87,17.44-2.34,26.11-0.38c13.31,3.09,20.62,11.11,21.65,25.92c0.7,10.12,0.23,20.34,0.28,30.51c0,5.67,0,11.3,0,17.25
	L1261.42,607.68z M1241.22,578.43c-3.8-2.48-11.62-3.61-15.14-3.09c-3.05,0.47-6.14,0.89-8.72,2.86c-5.25,4.08-4.97,11.53,0.7,14.62
	c5.86,3.19,11.76,2.16,17.15-0.94c4.92-2.81,6.89-7.45,5.95-13.45H1241.22z"/>
<path class="st0" d="M1306.74,435.76c0.28-7.36-2.67-11.3-8.91-12.94c-7.5-2.02-14.67-0.28-21.84,1.55
	c-1.5,0.37-2.91,0.98-4.87,1.64c-1.73-5.34-3.47-10.59-5.25-15.94c5.11-3,10.26-4.27,15.47-5.2c7.83-1.41,15.79-1.87,23.58-0.19
	c14.76,3.23,21.61,12,22.64,27.28c0.47,6.84,0.09,13.78,0.09,20.67c0,7.41,0,14.81,0,22.22c0,1.17,0,2.34,0,3.7h-20.34
	c-0.14-2.11-0.33-4.27-0.52-6.89c-4.41,3.8-8.95,6.7-14.48,7.64c-8.39,1.45-16.5,1.08-23.76-3.94c-7.41-5.11-9.84-12.61-9-21.14
	c0.84-8.53,5.3-14.67,13.45-17.9c9.84-3.94,19.83-3.66,29.9-1.31c1.17,0.28,2.34,0.47,3.84,0.8L1306.74,435.76z M1307.4,448.32
	c-3.84-0.75-7.64-1.73-11.53-2.16c-3.8-0.37-7.64,0.14-11.01,2.02c-3.42,1.87-5.34,4.92-4.83,8.95c0.47,3.75,2.53,6.47,6.28,7.26
	c2.81,0.56,5.86,1.03,8.62,0.66c7.64-1.12,13.97-6.56,12.42-16.69L1307.4,448.32z"/>
<path class="st0" d="M1538.23,448.93c2.25,15.47,19.45,18.75,35.25,6.89c2.02,1.69,4.12,3.37,6.14,5.16
	c1.92,1.69,3.75,3.42,5.77,5.3c-5.44,7.22-12.37,11.58-20.72,13.03c-10.59,1.87-20.95,1.17-30.51-4.55
	c-10.17-6.09-15.79-15.33-17.29-26.76c-1.73-13.5,1.69-25.64,11.81-35.34c12.28-11.76,33.32-12.47,46.26-2.77
	c6.89,5.2,10.73,12.42,12.89,20.62c1.59,5.86,1.55,11.86,1.12,18.42H1538.23L1538.23,448.93z M1568.18,435.34
	c-0.61-8.81-7.03-15.51-16.12-15.09c-7.87,0.37-13.92,7.17-13.64,15.09H1568.18z"/>
<path class="st0" d="M1411.82,478.6h-20.72c-0.09-1.41-0.28-2.72-0.28-4.03c0-12.23,0-24.47-0.05-36.75c0-2.2-0.28-4.45-0.84-6.61
	c-1.5-5.81-5.58-8.67-11.81-8.62c-6.05,0.05-10.55,3.23-11.9,8.72c-0.66,2.62-0.94,5.44-0.98,8.16c-0.09,11.2,0,22.4,0,33.61v5.34
	c-7.03,0-13.69,0-20.34,0c-0.84-3.7-1.08-67.59-0.19-73.77h20.34v9.75c1.64-1.59,2.48-2.44,3.37-3.33c8.2-8.2,17.95-9.89,28.54-6.14
	c9.23,3.28,13.45,10.73,14.76,20.06c0.19,1.55,0.19,3.09,0.19,4.64c0,15,0,30,0,44.99v3.89L1411.82,478.6z"/>
<path class="st0" d="M1281.1,552.19h-8.34v-18.28h8.34V515.3h21.33v18.09c5.91,1.08,11.58-0.09,17.39,0.7v18h-17.2v7.08
	c0,7.78,0,15.51,0,23.29c0,6.66,2.72,8.76,9.51,7.5c2.2-0.42,4.36-0.98,6.84-1.55c0.98,2.58,0.38,5.3,0.47,7.92
	c0.09,2.72,0,5.48,0,8.58c-9.37,4.97-18.94,5.95-28.78,1.87c-3.84-1.59-6.28-4.78-7.69-8.62c-1.45-3.89-1.97-7.97-1.97-12.14
	c0.05-11.01,0-22.03,0-33.79L1281.1,552.19z"/>
<path class="st0" d="M1102.34,478.6h-20.9V377.88c3.61,0,6.98-0.09,10.41-0.09c3.42,0,6.84,0,10.5,0v100.86V478.6z"/>
<path class="st0" d="M1062.03,478.6h-20.01c-0.98-3.7-1.17-95-0.19-100.68h20.2V478.6z"/>
<path class="st0" d="M1624.05,417.39c5.44-9.33,12.42-14.76,23.62-14.01v21.51c-1.83,0.33-3.8,0.7-5.76,0.98
	c-7.5,1.08-12.65,5.2-15.33,12.19c-1.69,4.31-2.34,8.95-2.34,13.64c0.05,8.76,0,17.58,0,26.57c-3.47,0.94-6.89,0.33-10.26,0.42
	c-3.42,0.09-6.8,0-10.41,0v-73.96h20.48V417.39z"/>
<path class="st0" d="M1355.2,607.73h-20.15v-73.54h19.97C1355.86,537.7,1356.09,601.26,1355.2,607.73L1355.2,607.73z"/>
<path class="st0" d="M1157.88,423.25c-2.02,5.81-3.98,11.39-5.91,16.97h-42.14c0-0.89-0.05-1.59,0.14-2.16
	c1.64-4.83,3.37-9.66,5.2-14.81H1157.88z"/>
<path class="st0" d="M1221.81,700.39c-1.08,0.8-1.92,1.36-3,2.16c-1.97-1.83-3.89-3.7-6.05-5.72c-0.84,0.66-1.69,1.17-2.44,1.83
	c-4.36,4.03-9.61,4.41-15,3.42c-3.8-0.7-6.51-3.42-7.31-7.17c-0.84-4.08-0.7-8.25,3.33-11.11c1.64-1.17,3.33-2.34,5.2-3.66
	c-0.84-1.27-1.69-2.3-2.3-3.52c-1.83-3.66-1.78-7.26,0.8-10.64c2.58-3.37,7.97-4.31,10.69-3.33c3.14,1.08,6.05,2.58,6.7,6.37
	c0.66,3.84-0.19,7.17-3.56,9.51c-1.5,1.03-3.14,1.92-5.16,3.14c3,3.09,5.76,5.95,9.09,9.33c1.73-3.28,3.19-5.95,4.73-8.91
	c0.98,0.42,2.02,0.89,3.33,1.45c-1.78,3.28-3.47,6.42-5.39,9.94c1.87,2.06,3.94,4.27,6.37,6.89H1221.81z M1198.8,683
	c-1.73,1.12-3.47,1.87-4.78,3.14c-4.27,4.17-2.77,10.36,2.77,12.33c4.5,1.59,9.56-0.28,12.89-5.02c-3.42-3.28-6.89-6.61-10.92-10.5
	L1198.8,683z M1201.05,679.81c2.62-1.87,4.73-3,6.33-4.69c2.48-2.62,1.45-7.36-1.59-8.81c-1.92-0.89-5.16-0.42-6.75,0.98
	c-2.34,2.16-2.77,3.89-1.36,6.84c0.8,1.64,1.87,3.14,3.37,5.58V679.81z"/>
<path class="st0" d="M966.75,667.39c-0.75,1.08-1.41,2.02-2.06,2.86c-2.72-1.17-5.16-2.3-7.69-3.28
	c-7.87-3.05-19.17,2.95-19.5,13.78c-0.09,3,0.14,6.28,1.22,9.05c2.06,5.34,6.23,8.44,12.09,8.86c3.47,0.23,6.94,0.09,10.12-1.45
	c1.92-0.89,3.42-2.2,3.19-4.78c-0.19-2.34,0-4.78,0-7.5h-11.34v-3.75h15.14c0.47,1.78,1.22,13.26,0.61,14.58
	c-0.56,1.17-1.45,2.34-2.53,3.05c-1.69,1.12-3.61,2.2-5.53,2.62c-11.62,2.58-22.45,0.84-26.72-12.89
	c-3.09-9.98,1.69-23.11,15.19-25.97c6.23-1.31,12.28,0,17.9,4.69L966.75,667.39z"/>
<path class="st0" d="M1285.55,684.87h-11.39c-0.05-1.27-0.14-2.34-0.19-3.61h16.03c0,4.59-0.09,9.05,0.05,13.5
	c0.05,1.87-0.89,3-2.2,3.8c-1.73,1.08-3.56,2.2-5.53,2.72c-7.31,1.87-14.67,2.62-20.95-2.77c-6.47-5.53-8.39-12.7-6.47-20.86
	c1.97-8.39,7.59-13.5,15.84-15c6.19-1.12,12.28,0.09,17.39,4.87c-0.66,0.94-1.31,1.87-1.97,2.77c-2.72-1.17-5.16-2.3-7.64-3.23
	c-8.16-3.14-19.54,3.23-19.54,14.25c0,2.86,0.19,5.91,1.22,8.53c2.06,5.34,6.19,8.67,12.09,8.86c3.19,0.09,6.47-0.52,9.61-1.27
	c2.53-0.61,4.03-2.34,3.75-5.34c-0.23-2.2,0-4.41,0-7.17L1285.55,684.87z"/>
<path class="st0" d="M1110.83,677c0.28-3,1.64-4.27,4.87-3c0,6.75,0,13.73,0,20.76c0,1.69,0.14,3.47-0.23,5.11
	c-1.5,6.23-3.84,9.75-12.7,11.48c-4.08,0.8-10.59-1.27-14.58-4.41c0.52-0.75,1.03-1.55,1.59-2.44c2.72,1.03,5.16,2.2,7.78,2.91
	c5.16,1.36,11.2-0.75,13.03-5.48c0.84-2.2,0.89-4.27,0.56-7.08c-3.94,3.19-7.78,5.81-12.61,5.06c-3.8-0.61-7.03-2.53-9.51-5.62
	c-3.7-4.64-3.61-12.09,0.75-17.01c2.67-3.05,6.28-4.5,10.45-4.59c4.03-0.09,7.08,2.16,10.69,4.31H1110.83z M1090.77,686.37
	c0.09,5.72,4.45,10.03,10.17,10.03c5.91,0,10.12-4.59,10.5-10.45c0.28-4.83-5.58-9.94-10.64-9.7
	C1094.98,676.53,1090.67,680.66,1090.77,686.37z"/>
<path class="st0" d="M1383.89,678.36v-16.73c1.5-0.09,2.77-0.19,4.31-0.33v40.64c-1.17,0.05-2.44,0.09-3.94,0.19
	c-0.19-1.36-0.33-2.48-0.42-3.52c-0.52-0.09-0.89-0.23-1.08-0.14c-1.03,0.61-2.02,1.27-2.95,2.02c-6.94,5.58-15.65,0.52-18.61-4.17
	c-3.8-6.09-2.39-14.67,2.48-19.87c3.98-4.27,13.59-5.39,17.58-0.52C1381.78,676.58,1382.48,677.05,1383.89,678.36z M1384.07,687.45
	c0.89-7.45-7.55-13.36-14.81-10.12c-6.05,2.67-7.92,12.37-3.28,17.72c1.59,1.83,3.23,3.42,5.95,3.66
	c7.22,0.61,12.23-3.94,12.14-11.3V687.45z"/>
<path class="st0" d="M414.53,663.27c6.19,0,11.86-0.19,17.53,0c11.39,0.47,14.53,12.51,9.8,19.03c-2.44,3.37-5.72,5.34-9.94,5.44
	c-4.12,0.09-8.2,0-12.65,0v14.06c-1.73,0.09-3.14,0.14-4.73,0.23v-38.81V663.27z M419.03,684.12c4.5,0,8.3,0.19,12.05-0.05
	c4.83-0.33,7.97-3.37,8.25-7.5c0.33-5.25-1.87-8.53-7.26-9.28c-4.12-0.56-8.44-0.09-13.08-0.09v16.92H419.03z"/>
<path class="st0" d="M1509.31,662.89c3.61-1.22,4.45,0.66,5.39,2.67c3.61,8.11,7.31,16.17,10.97,24.23
	c1.73,3.84,3.47,7.73,5.2,11.67c-3.84,0.8-3.89,0.84-5.25-1.87c-1.22-2.44-2.34-4.87-3.7-7.73c-6.33,0-12.84,0-19.36,0
	c-1.59,0-2.44,0.8-3.05,2.25c-1.12,2.67-2.44,5.25-3.66,7.92h-4.31c6.05-13.31,12-26.34,17.81-39.09L1509.31,662.89z
	 M1519.81,687.92c-1.55-6.47-6.51-16.73-9.23-18.94c-2.72,6.19-5.44,12.33-8.34,18.94H1519.81z"/>
<path class="st0" d="M1334.25,507.14h22.03v18.84h-22.03V507.14z"/>
<path class="st0" d="M1547.51,697.06c-0.14,1.92-0.19,3.28-0.28,4.97c-1.08,0.05-2.02,0.09-2.95,0.14c-0.89-0.98-1.22-24-0.61-40.45
	c0.56-0.09,1.17-0.28,1.78-0.33c0.47,0,0.98,0.09,1.87,0.23v17.29c6.84-7.31,14.81-8.2,20.72-2.53c6,5.81,5.44,16.36,0.7,21.65
	c-5.58,6.19-12.94,6.05-21.28-0.98L1547.51,697.06z M1558.01,698.75c6.23,0.8,10.45-5.3,10.36-10.87
	c-0.09-7.69-5.72-11.72-10.55-11.53c-5.72,0.23-10.45,5.06-10.5,11.15C1547.32,694.25,1551.54,698.75,1558.01,698.75z"/>
<path class="st0" d="M749.88,698.09v13.08h-3.61v-37.26c0.8-0.09,1.87-0.19,3.09-0.33c0.28,1.5,0.52,2.77,0.75,4.17
	c8.48-6.28,15.42-6.75,20.29-1.17c6.19,7.03,5.3,15.19,1.22,20.76c-4.83,6.61-11.95,6.8-21.79,0.75L749.88,698.09z M770.41,687.78
	c0.52-7.08-5.86-13.22-13.08-11.01c-4.08,1.22-6.7,4.17-7.45,8.34c-0.75,4.17-0.14,8.16,3.37,11.25c5.16,4.45,13.55,2.95,16.08-3.09
	C770.04,691.58,770.09,689.61,770.41,687.78z"/>
<path class="st0" d="M319.3,701.98h-4.17v-40.35c1.08-0.09,2.34-0.14,4.08-0.28v15.75c1.41-0.94,2.16-1.41,2.86-2.02
	c3.75-3.05,7.87-3,12.09-1.31c4.12,1.69,5.81,5.16,5.91,9.37c0.14,6.19,0,12.37,0,18.51c-4.22,0.52-4.41,0.42-4.45-3.05
	c0-4.64-0.14-9.33,0-13.97c0.19-5.34-3.09-7.87-7.36-8.11c-5.67-0.33-8.91,3.42-9,7.78c-0.09,5.67,0,11.39,0,17.67L319.3,701.98z"/>
<path class="st0" d="M1325.25,678.45c-0.52-1.08-0.98-2.11-1.64-3.56c3.56-0.75,6.84-1.78,10.22-2.02c2.3-0.14,4.73,0.52,6.94,1.31
	c5.3,1.92,5.86,6.8,6.09,11.39c0.28,5.3,0.05,10.64,0.05,16.31c-1.31,0.09-2.58,0.19-3.94,0.33c-0.38-1.08-0.7-2.02-1.17-3.28
	c-3.56,3.37-7.73,3.84-12.14,3.42c-4.45-0.42-7.59-3.23-8.11-7.22c-0.61-4.69,1.36-8.16,5.76-9.75c3.42-1.22,6.94-1.59,10.55-0.75
	c1.27,0.28,2.62,0.38,3.94,0.52c0.61-4.22-0.56-6.61-3.94-7.78c-2.58-0.89-5.25-1.45-7.97-0.19c-1.36,0.61-2.91,0.84-4.59,1.27
	H1325.25z M1342.36,689.47c-4.12-2.16-10.5-2.44-13.73-0.8c-2.06,1.08-2.91,2.86-3.19,4.92c-0.23,1.97,1.5,4.12,3.66,5.02
	c7.03,2.95,13.36-1.45,13.22-9.14H1342.36z"/>
<path class="st0" d="M1004.53,695.37c0.61,0.7,1.22,1.45,1.83,2.11c-4.27,6.28-15.28,7.08-20.95,1.5
	c-6.28-6.14-6.09-15.47-1.17-21.33c3.8-4.45,8.67-6.09,14.3-4.45c5.72,1.64,8.39,6.09,9.33,11.67c0.23,1.31,0,2.72,0,4.69H985.5
	c1.41,10.26,9.28,12.51,18.98,5.81H1004.53z M985.22,685.72h18.09c-0.42-5.91-3.09-9.05-7.69-9.42
	C990.23,675.87,986.53,679.11,985.22,685.72z"/>
<path class="st0" d="M1588,689.56c2.48,10.31,9.37,12.23,19.54,5.76c0.66,0.61,1.36,1.22,2.02,1.87
	c-5.44,7.69-18.33,7.36-23.43-0.66c-3.52-5.53-3.28-11.39-0.33-17.06c2.67-5.11,7.17-7.08,12.8-6.75c6,0.33,11.16,5.39,11.86,11.62
	c0.14,1.5,0,3.09,0,5.2h-22.5L1588,689.56z M1606.56,685.76c-1.78-7.12-4.41-9.66-9.66-9.47c-4.83,0.19-7.78,3.33-8.76,9.47H1606.56
	z"/>
<path class="st0" d="M376.85,695.33c0.7,0.75,1.12,1.27,1.55,1.69c-0.14,0.42-0.14,0.8-0.37,1.03c-6.28,6.98-18,5.81-22.73-1.31
	c-3.61-5.39-3.28-11.06-0.84-16.59c2.39-5.39,7.03-7.69,12.89-7.45s11.06,4.87,12.05,10.83c0.28,1.83,0.23,3.7,0.37,6h-22.45
	c1.59,10.03,8.67,12.09,19.5,5.76L376.85,695.33z M375.59,685.76c-1.69-7.08-4.36-9.66-9.61-9.47c-4.83,0.19-7.73,3.28-8.76,9.47
	h18.42H375.59z"/>
<path class="st0" d="M1155.21,689.61h-21.98c0.75,9.75,8.76,12.14,19.12,5.72c0.56,0.47,1.17,1.03,1.73,1.55
	c-0.09,0.42,0,0.84-0.23,1.08c-6.05,6.98-18.09,6.33-23.01-1.45c-3.52-5.53-3.23-11.39-0.23-17.06c2.67-5.11,7.22-7.03,12.84-6.7
	c5.76,0.33,10.92,5.2,11.72,11.15c0.23,1.69,0,3.42,0,5.72L1155.21,689.61z M1132.53,686.05c3.61,0,6.66,0.09,9.75,0
	c3-0.09,6.09,0.56,9.09-0.47c-2.06-7.08-4.41-9.33-9.37-9.28C1137.07,676.3,1134.59,678.83,1132.53,686.05z"/>
<path class="st0" d="M552.85,685.2c1.03-3.05,0.28-5.44-1.64-6.51c-2.3-1.27-5.11-1.97-7.73-2.02c-2.3-0.05-4.59,1.08-7.26,1.78
	c-0.28-0.84-0.56-1.73-0.98-3c5.72-2.77,11.3-3.8,17.15-0.94c3.66,1.78,5.2,4.92,5.34,8.67c0.19,6.19,0.05,12.37,0.05,18.75h-4.12
	c-0.23-0.84-0.47-1.59-0.75-2.58c-0.52,0.19-0.98,0.23-1.36,0.52c-5.16,3.37-11.48,3.56-15.84,0.42c-4.92-3.52-4.45-11.3,0.94-14.15
	c3.75-2.02,7.78-2.39,11.95-1.59C549.89,684.83,551.25,684.97,552.85,685.2z M554.02,689.19c-4.45-2.16-9.09-2.06-13.78-0.8
	c-2.39,0.66-3.8,2.67-3.75,4.97c0,2.25,1.31,4.12,3.61,5.16c2.11,0.98,4.27,1.22,6.51,0.66c4.97-1.27,6.61-3.37,7.45-10.03
	L554.02,689.19z"/>
<path class="st0" d="M859.14,672.73c8.72,0.14,14.62,6.37,14.81,15.14c0.19,7.59-5.72,15-15.05,14.95
	c-9.61,0-15.05-6.56-15.05-15.42c0-7.36,5.72-14.9,15.23-14.67H859.14z M869.54,688.06c0.47-6.98-5.06-11.86-10.87-11.72
	c-5.91,0.09-10.36,4.78-10.45,11.06c-0.09,6.56,5.02,12.19,10.87,11.95C864.81,699.12,869.5,694.06,869.54,688.06z"/>
<path class="st0" d="M1048.58,687.73c0,8.53-6.75,15.56-14.67,15.28c-8.25-0.23-15-7.08-15.05-15.05
	c-0.09-8.72,6.47-15.33,15.14-15.23C1042.49,672.78,1048.63,679.06,1048.58,687.73L1048.58,687.73z M1023.37,687.78
	c0,6.75,4.27,11.01,10.78,10.97c6.19,0,10.55-4.45,10.55-10.78c0-6.56-4.83-11.62-10.97-11.76c-5.06-0.09-10.97,4.36-10.36,11.53
	V687.78z"/>
<path class="st0" d="M732.31,687.78c0,8.48-6.8,15.51-14.72,15.23c-8.25-0.28-14.95-7.12-15-15.14
	c-0.05-8.72,6.56-15.28,15.19-15.19C726.26,672.78,732.31,679.02,732.31,687.78z M717.64,698.79c6.28,0,10.64-4.27,10.73-10.59
	c0.14-6.56-4.69-11.72-10.78-11.95c-5.34-0.19-10.87,4.5-10.59,11.34c0.28,6.75,4.17,11.15,10.64,11.15V698.79z"/>
<path class="st0" d="M456.81,661.53h3.52v15.42c1.97-1.22,3.33-2.06,4.73-2.91c5.86-3.47,16.08-0.7,16.17,9.19
	c0.05,5.67,0.05,11.39,0.05,17.06c0,0.47-0.19,0.98-0.28,1.64h-3.14c-0.14-0.37-0.42-0.8-0.42-1.27c0-4.83,0.14-9.66-0.09-14.48
	c-0.14-2.3-0.56-4.92-1.78-6.8c-3.19-4.87-11.86-3.75-14.01,1.69c-0.75,1.83-1.03,3.98-1.08,6c-0.14,4.83-0.05,9.61-0.05,14.81
	c-1.17,0.09-2.25,0.19-3.56,0.28v-40.64L456.81,661.53z"/>
<path class="st0" d="M642.88,701.98h-3.52v-40.4h3.42V677c1.83-1.12,3-1.87,4.22-2.58c8.25-4.55,16.45-0.09,16.73,9.23
	c0.19,6,0,12,0,18.33c-1.31,0.05-2.39,0.09-3.84,0.19c0-5.2,0-9.98,0-14.76c0-1.36,0.05-2.77-0.23-4.12
	c-0.94-4.45-3.66-6.98-7.69-6.8c-4.27,0.14-7.31,1.31-8.67,6.42c-0.37,1.45-0.37,3.05-0.42,4.59c-0.05,2.39,0,4.83,0,7.22v7.31
	V701.98z"/>
<path class="st0" d="M798.35,697.43c3.37-8.67,6.28-16.08,9.28-23.67h3.98c0.09,0.47,0.28,0.84,0.19,1.08
	c-3.7,9-7.31,18.04-11.2,26.95c-1.22,2.77-2.81,5.58-4.97,7.59c-3.05,2.86-6.94,2.11-10.97,0.66c0.38-1.03,0.75-2.02,1.17-3.28
	c1.12,0.33,2.06,0.66,3,0.84c2.48,0.52,4.41-0.52,5.81-2.44c1.27-1.73,1.59-3.37,0.47-5.67c-3.98-8.3-7.64-16.78-11.62-25.64
	c1.45-0.09,2.86-0.19,4.31-0.28c3.42,7.73,6.7,15.19,10.55,23.9V697.43z"/>
<path class="st0" d="M1401.18,710.46c0.84-1.78,1.27-2.67,1.78-3.7c0.89,0.23,1.69,0.47,2.48,0.7c2.48,0.75,4.45-0.19,5.95-2.02
	c1.45-1.78,1.92-3.61,0.7-6.09c-4.03-8.3-7.64-16.73-11.58-25.45c1.36-0.14,2.62-0.28,4.22-0.47c3.42,7.69,6.8,15.33,10.64,23.95
	c3.33-8.48,6.33-16.03,9.28-23.62h4.31c-4.12,10.17-8.16,20.11-12.19,30.04c-1.41,3.47-3.52,6.51-7.45,7.12
	c-2.44,0.38-4.97-0.23-8.11-0.47H1401.18z"/>
<path class="st0" d="M597.14,701.98h-3.98c-0.09-0.38-0.38-0.8-0.38-1.27c0-5.34-0.05-10.69,0-16.03c0.05-5.06-3.19-7.12-5.95-8.06
	c-3.28-1.08-7.73,0.47-9.33,3.8c-1.12,2.34-1.59,5.2-1.73,7.87c-0.28,4.45-0.09,8.91-0.09,13.59h-3.52v-28.03
	c0.84-0.09,1.92-0.23,3.09-0.38c0.33,1.27,0.56,2.2,0.84,3.28c0.56-0.14,1.17-0.14,1.5-0.42c2.2-2.02,4.5-3.42,7.64-3.75
	c5.91-0.56,11.67,3.7,11.86,10.69c0.14,6.05,0,12.05,0,18.65L597.14,701.98z"/>
<path class="st0" d="M290.42,701.93h-4.83v-34.82h-12.98c-0.09-1.31-0.19-2.39-0.28-3.7h30.42v3.52h-12.28v35.01H290.42z"/>
<path class="st0" d="M892.98,672.88c2.02,0,3.7,0,5.39,0c2.19,0,3.44,1.42,3.75,4.27h-8.95v24.65c-1.69,0.14-2.95,0.28-4.64,0.42
	v-23.95c-1.55-1.55-4.45-0.56-4.31-3.42c0.14-2.53,2.72-1.55,3.8-2.62c1.03-8.44,3.14-10.97,9.23-11.01c4.08,0,4.12,0,4.59,3.33
	C892.88,665.47,892.88,665.52,892.98,672.88L892.98,672.88z"/>
<path class="st0" d="M626.81,698.7c-0.8,1.45-1.08,2.77-1.73,3.05c-1.69,0.61-3.61,1.27-5.3,0.98c-4.83-0.84-7.12-3.8-7.22-9.05
	c-0.14-5.16,0-10.31,0-15.33c-1.17-1.64-4.22-0.52-4.22-3.28c0-2.48,2.34-1.92,3.94-2.86v-7.45c1.59-0.09,3-0.19,4.55-0.23
	c0.14,2.91,0.28,5.39,0.42,8.39c2.11,0,3.98,0,5.81,0c2.81,0.09,2.86,0.19,3.19,4.17h-8.44c-0.66,2.62-1.12,15.75-0.75,17.76
	c0.42,2.16,1.92,3.61,4.22,3.8c1.5,0.14,3.05,0,5.53,0L626.81,698.7z"/>
<path class="st0" d="M1437.51,698.42c0.84-0.98,1.41-1.59,1.87-2.11c2.77,0.89,5.48,1.45,7.92,2.58c2.2,1.03,4.08,0.23,5.95-0.52
	c3-1.22,3.37-5.25,0.66-7.08c-1.22-0.84-2.86-1.03-4.27-1.64c-2.67-1.12-5.48-1.97-7.87-3.52c-3.56-2.25-3.89-6.56-1.22-9.7
	c2.25-2.62,5.11-4.17,8.62-3.7c2.48,0.38,4.97,1.08,7.41,1.83c2.48,0.75,2.02,2.25,0.89,3.84c-10.78-3.28-12.47-2.95-14.67,2.62
	c1.12,2.39,3.28,3.33,5.62,4.03c2.11,0.66,4.27,1.31,6.28,2.25c4.36,2.02,5.3,3.94,4.59,8.62c-0.42,2.91-3.28,5.81-6.7,6.23
	c-5.25,0.66-10.26,0.05-15-3.75H1437.51z"/>
<path class="st0" d="M1066.25,679.11c3.42-3.09,6-6.8,11.11-6.28v4.08c-8.01,1.73-11.25,5.53-11.44,13.5c-0.09,3.75,0,7.5,0,11.53
	h-4.36c0-8.91,0-17.62,0-26.39c0-1.64,0.61-2.72,2.25-2.72c1.41,0,2.11,0.89,2.11,2.34
	C1065.92,676.34,1066.11,677.47,1066.25,679.11z"/>
<path class="st0" d="M1643.4,661.53h4.17v40.4h-4.17V661.53z"/>
<path class="st0" d="M1623.76,661.53h4.17v40.4h-4.17V661.53z"/>
<path class="st0" d="M1304.35,661.53h4.17v40.4h-4.17V661.53z"/>
<path class="st0" d="M693.78,672.83V677c-5.06,0.56-8.91,3-10.5,8.11c-0.52,1.59-0.84,3.28-0.94,4.97c-0.14,3.75,0,7.55,0,11.67
	c-1.08,0.14-2.16,0.28-3.52,0.47v-28.31c0.89-0.09,1.97-0.19,3.23-0.33c0.23,1.87,0.42,3.47,0.7,5.58c3.33-3.09,6-6.42,11.06-6.37
	L693.78,672.83z"/>
<path class="st0" d="M515.91,661.53h3.42v40.4c-0.98,0.05-2.06,0.09-3.42,0.19C515.91,702.12,515.91,661.53,515.91,661.53z"/>
<path class="st0" d="M499.6,702.07h-3.19v-28.36c0.98,0,1.97,0,2.95,0c0,4.69,0,18.75,0.23,28.31V702.07z"/>
<polygon class="st0" points="496.37,668.84 499.37,669.08 499.32,664.67 499.37,664.39 496.41,664.39 "/>
<g>
	<g>
		<g>
			<path class="st1" d="M285.72,368.47h-8.3l8.3,252.23l427.86,1.28l8.2-237.87L285.72,368.47z M449.85,558.99
				c-2.11-16.64-2.54-32.85-4.36-49.34h-53.56c-0.48,0.91-1.25,2.25-1.97,3.6c-6.43,12.42-14.15,23.93-24.69,33.33
				c-12.32,10.98-26.71,16.78-43.25,16.93c-4.56,0.05-9.11-0.48-13.67-0.86c-6.81-0.58-12.08-4.32-17.6-8.87
				c1.97-2.78,3.79-5.51,5.75-8.1c1.87-2.49,3.88-4.94,5.99-7.58c6.71,5.66,14.39,7.38,22.78,6.52c5.95-0.62,11.17-3.02,16.16-6.09
				c7.96-4.89,14.38-11.51,19.66-19.04c4.75-6.76,9.11-13.81,12.95-21.1c17.12-32.7,33.9-65.55,52.03-97.67
				c0.48-0.91,0.86-1.92,1.68-3.74l-0.1,0.1H391.2c1.63-5.66,3.16-10.84,4.8-16.49c20.52-0.58,40.95,0.1,61.52-0.1
				c0.48,4.22,1.01,8.15,1.34,12.13c1.15,13.62,2.25,27.28,3.45,40.95c1.01,11.7,2.06,23.45,3.16,35.15
				c1.29,13.28,2.69,26.56,3.88,39.85c0.91,9.83,1.63,19.61,2.45,29.44c0.34,3.64,0.77,7.24,1.15,10.98
				C465.24,552.32,457.85,555.54,449.85,558.99z M486.38,491.43c4.41,0,8.77,0.1,13.14,0c9.54-0.19,19.04-0.48,28.53-0.72
				c1.19,0,2.43,0,4.22,0c-1.44,4.22-2.64,7.67-3.84,11.12c-0.86,2.49-1.82,4.94-2.78,7.53H480.2
				C482.26,503.32,484.23,497.66,486.38,491.43z M685.71,432.64c-7.38,24.12-14.82,48.19-22.25,72.31
				c-7.14,23.06-14.29,46.18-21.34,69.29c-0.82,2.69-1.39,5.47-1.53,8.25c-0.24,5.47,2.64,8.44,8.2,8.77
				c5.13,0.29,10.21-0.05,15.15-1.68c1.15-0.34,2.3-0.62,4.12-1.1c-0.38,1.39-0.58,2.3-0.91,3.12c-1.29,3.12-2.97,6.04-3.79,9.25
				c-1.15,4.32-3.93,6.04-7.96,7.19c-7.43,2.16-14.86,2.88-22.39,1.01c-8.77-2.16-14.72-8.97-16.02-18.75
				c-1.29-9.69,1.29-18.7,4.03-27.76c4.99-16.26,9.93-32.51,14.82-48.77c0.34-1.15,0.43-2.4,0.72-3.88h-73.12
				c-8.68,28.19-17.36,56.44-26.08,84.78h-24.69c16.35-53.13,32.61-105.73,49-159c-12.85-0.67-25.13-0.1-37.69-0.48
				c1.63-5.61,3.16-10.74,4.65-15.78c4.94-1.15,54.81-0.86,63.34,0.43c-7.53,23.69-15.01,47.33-22.54,70.97
				c3.84,0.96,63.63,1.25,73.46,0.38c6.67-21.67,13.38-43.54,20.09-65.31h24.5C686.86,428.37,686.38,430.53,685.71,432.64z"/>
			<path class="st1" d="M401.85,491.19h42.34c-1.87-23.93-3.74-47.52-5.66-71.59C435.13,424.87,401.99,487.98,401.85,491.19z"/>
		</g>
	</g>
</g>
</svg>
