<?xml version="1.0" encoding="utf-8"?>
<!-- Generator: Adobe Adobe Illustrator 29.2.0, SVG Export Plug-In . SVG Version: 6.00 Build 0)  -->
<svg version="1.1" id="Layer_1" xmlns="http://www.w3.org/2000/svg" xmlns:xlink="http://www.w3.org/1999/xlink" x="0px" y="0px"
	 viewBox="0 0 1920 1080" style="enable-background:new 0 0 1920 1080;" xml:space="preserve">
<style type="text/css">
	.st0{fill:#FFFFFF;}
</style>
<g>
	<path class="st0" d="M1520.13,410.07v-9.58h21.97c0.1,1.3,0.3,2.71,0.3,4.11c0,19.91,0,39.83,0,59.74c0,5.57-0.95,10.99-2.66,16.25
		c-3.86,11.79-12.49,18.61-24.18,21.02c-17.01,3.46-33.71,2.26-49.71-5.17c-0.8-0.4-1.55-0.9-2.71-1.61
		c2.56-5.57,5.07-10.99,7.67-16.65c1.86,0.9,3.31,1.61,4.82,2.26c9.13,3.91,18.46,6.02,28.49,4.21c10.28-1.86,14.6-8.03,15.85-17.76
		c0.25-1.81,0-3.66-0.85-6.22c-0.55,0.95-1,2.01-1.71,2.76c-11.99,13.09-30.6,11.29-41.59,4.56c-9.43-5.77-14.65-14.3-16.15-25.08
		c-1.91-13.24,0.7-25.23,10.73-34.86c11.84-11.39,33.46-12.94,46.35-0.8c0.9,0.85,1.91,1.66,3.31,2.81H1520.13z M1482.15,436.1
		c-0.45,9.23,6.82,18.21,18.76,18.11c11.99-0.1,19.36-8.03,19.21-18.36c-0.15-12.34-10.13-18.16-19.46-18.16
		C1491.83,417.69,1481.6,424.52,1482.15,436.1z"/>
	<path class="st0" d="M1178.92,376.16c0.65,0,1.35-0.15,2.06-0.15c6.62,0,13.24,0,20.47,0v40.53h41.38v-40.33c7.88,0,15.2,0,22.52,0
		c1.05,4.51,1.5,84.27,0.55,102.98c-3.71,0.85-7.57,0.3-11.39,0.4c-3.66,0.1-7.32,0-11.44,0v-41.13c-7.17,0-13.95-0.05-20.67-0.1
		c-6.67,0-13.29,0-20.17,0c-1.35,3.41-0.45,6.92-0.65,10.33c-0.15,3.31,0,6.62,0,9.98v10.53c0,3.26,0,6.57,0,10.13h-22.42
		c-0.95-3.71-1.2-96.61-0.2-103.24L1178.92,376.16z"/>
	<path class="st0" d="M883.16,470.37v8.98h-22.62v-107.6c3.71-0.05,7.32-0.15,10.94-0.2c3.66,0,7.32,0,11.59,0
		c0.2,6.62,0.1,12.99,0.1,19.41c0,6.27,0,12.54,0,19.41c1.05-0.9,1.76-1.4,2.31-2.01c11.29-12.34,29.19-11.89,41.43-3.76
		c9.83,6.52,14.65,16.1,16.3,27.59c1.4,9.68,0.5,19.11-3.51,27.99c-8.13,18.11-27.89,24.98-44.24,18.46
		c-3.51-1.4-6.47-4.06-9.68-6.17C885.01,471.97,884.41,471.37,883.16,470.37L883.16,470.37z M883.01,440.12
		c-0.25,4.31,0.8,8.33,2.91,12.09c3.61,6.37,9.38,9.73,16.35,9.48c7.42-0.25,13.24-4.11,16.4-11.24c2.91-6.57,3.06-13.19,0.5-19.81
		c-2.86-7.32-8.23-11.79-16.1-12.34c-7.17-0.5-12.74,2.56-16.7,8.68C883.76,431.04,882.8,435.4,883.01,440.12z"/>
	<path class="st0" d="M1197.08,617.69h-21.97c-0.15-2.91-0.25-5.62-0.4-8.98c-1.35,0.9-2.46,1.4-3.26,2.21
		c-14.3,14.1-37.32,9.28-48.06-4.21c-8.33-10.43-10.33-22.57-8.83-35.42c1.05-9.13,4.61-17.26,11.09-24.08
		c11.74-12.34,34.41-13.39,45.2-2.56c0.85,0.85,2.06,1.45,3.91,2.71c0.05-4.82,0.15-8.73,0.15-12.69c0-4.06,0-8.13,0-12.19
		c0-4.06,0-8.03,0-12.24h22.22v107.4L1197.08,617.69z M1137.18,577.26c0,6.62,0.75,9.88,3.41,14.1c6.87,11.04,22.87,11.54,30.25,0.8
		c5.32-7.78,5.82-16.2,1.96-24.63c-5.87-12.69-21.47-15-30.5-4.61c-3.66,4.16-5.42,9.13-5.07,14.35L1137.18,577.26z"/>
	<path class="st0" d="M762.31,479.5h-23.48c14.85-34.86,29.55-69.28,44.24-103.84h21.42c14.6,34.21,29.35,68.72,44.19,103.64h-24.08
		c-2.96-7.12-6.12-14.7-9.38-22.52h-43.49C768.68,464.1,765.52,471.67,762.31,479.5z M806.76,435.6
		c-4.31-10.48-8.58-20.87-13.29-32.2c-3.01,7.32-5.62,13.54-8.18,19.76c-1.71,4.21-3.41,8.38-5.27,13.04c8.63,0,16.7,0,24.83,0
		c0.5,0,1-0.3,1.96-0.6H806.76z"/>
	<path class="st0" d="M747.87,514.46h78.51c0.25,6.82,0.1,13.69,0.1,20.97h-55.38v21.62h48.46v20.97h-48.61v39.68h-22.47
		C747.36,613.18,746.91,537.78,747.87,514.46L747.87,514.46z"/>
	<path class="st0" d="M880.1,537.18c16.05,0.35,28.89,6.57,37.22,20.72c8.03,13.59,7.02,31.5-2.51,44.65
		c-14.2,19.51-44.95,22.77-63.56,7.27c-21.37-17.81-18.66-51.32,4.21-65.76C862.99,539.29,871.17,536.98,880.1,537.18z
		 M900.01,578.57c0-5.12-0.7-7.83-3.26-11.99c-4.36-7.12-10.84-10.13-19.11-9.53c-7.93,0.6-13.29,4.72-16.55,11.79
		c-1.76,3.81-1.81,7.88-1.56,11.89c0.85,13.69,14.3,22.42,27.39,18.11c7.17-2.41,13.39-10.03,13.14-20.27L900.01,578.57z"/>
	<path class="st0" d="M1485.97,578.27c1.25,21.22-17.36,40.33-39.78,41.18c-13.44,0.5-25.13-3.06-34.61-12.79
		c-16.4-16.75-14.55-45.1,3.66-59.89c16.35-13.29,42.54-12.89,58.49,1.76C1481.45,555.64,1485.97,566.33,1485.97,578.27
		L1485.97,578.27z M1464.09,579.17c-0.55-2.86-0.7-5.87-1.71-8.58c-2.71-7.12-7.57-12.14-15.5-13.34
		c-8.33-1.25-15.5,0.85-20.32,8.08c-5.07,7.62-5.17,17.41,0,25.48c7.07,11.19,22.72,11.14,30.05,4.46
		c4.77-4.36,7.07-9.68,7.52-16.15L1464.09,579.17z"/>
	<path class="st0" d="M959.35,538.89c0,14.2,0,28.04,0,41.84c0,2.01,0,4.06,0.25,6.07c0.75,6.57,4.92,11.04,10.63,11.59
		c7.88,0.8,12.94-2.16,15.05-9.03c0.7-2.26,0.95-4.67,1-7.02c0.1-12.54,0-25.13,0-37.67c0-1.81,0-3.66,0-5.77h22.27
		c0.85,3.71,1.05,72.18,0.1,78.81c-3.51,0.05-7.12,0.15-10.73,0.15c-3.66,0-7.32,0-11.44,0v-10.33c-2.11,2.01-3.46,3.46-4.92,4.77
		c-11.24,10.43-30.2,8.88-38.78-1.71c-4.77-5.87-6.42-12.69-6.42-20.07c0-11.99,0-23.98,0-36.02c0-5.12,0-10.28,0-15.7h22.97
		L959.35,538.89z"/>
	<path class="st0" d="M1523.44,617.59h-22.47v-78.76c3.41-0.4,7.07-0.15,10.68-0.2c3.66,0,7.37,0,11.59,0v10.63
		c2.51-2.51,4.11-4.11,5.72-5.67c9.58-9.33,29.6-8.43,37.97,2.06c4.06,5.12,6.32,10.94,6.42,17.26c0.25,18.06,0.1,36.17,0.1,54.48
		c-3.71,0.95-7.42,0.35-11.04,0.45c-3.66,0.1-7.32,0-11.29,0c-0.2-1.66-0.5-2.86-0.5-4.06c0-12.54,0.05-25.13-0.05-37.67
		c0-3.26-0.3-6.67-1.2-9.78c-1.66-5.67-5.57-8.23-11.59-8.28c-6.82-0.1-11.19,2.41-12.99,8.03c-0.85,2.76-1.2,5.77-1.25,8.68
		c-0.15,12.39-0.05,24.73-0.05,37.12v5.67L1523.44,617.59z"/>
	<path class="st0" d="M1099.96,617.69h-22.37c-0.1-1.5-0.2-2.91-0.25-4.31c0-12.94,0-25.83-0.05-38.78c0-2.56-0.4-5.17-1-7.62
		c-1.4-5.72-5.27-8.68-11.09-8.93c-7.17-0.3-11.69,2.11-13.59,7.93c-0.85,2.56-1.15,5.37-1.2,8.13c-0.1,12.54-0.05,25.13-0.05,37.67
		v5.92c-7.83,0.45-15.1,0.1-22.67,0.25v-79.01h22.37c0.2,2.76,0.35,5.57,0.6,9.03c1.81-1.66,3.21-2.86,4.46-4.11
		c8.83-8.73,24.33-7.67,31.6-3.71c7.37,4.06,11.09,10.58,12.64,18.51c0.55,2.86,0.85,5.82,0.85,8.78c0.1,15.9,0,31.75,0,47.65
		c0,0.7-0.2,1.4-0.35,2.71L1099.96,617.69z"/>
	<path class="st0" d="M1015.74,455.02c4.26,3.76,8.43,7.42,12.79,11.29c-5.72,7.32-12.94,12.04-21.92,13.74
		c-12.94,2.46-25.33,1.3-36.37-6.77c-8.43-6.17-13.19-14.6-15-24.83c-1.76-10.08-0.6-19.76,4.21-28.84
		c7.12-13.39,18.36-20.17,33.41-20.67c12.34-0.4,22.82,3.61,30.6,13.54c4.77,6.07,7.32,13.14,8.23,20.72
		c0.55,4.67,2.01,9.43-0.3,14.65h-53.93c4.16,16.96,20.57,20.02,38.17,7.17H1015.74z M1009.72,433.4c-1-10.28-7.93-16.96-16.45-16.4
		c-8.78,0.55-15.35,7.42-15.5,16.25c0.7,0,1.4,0.15,2.11,0.15C989.65,433.4,999.43,433.4,1009.72,433.4z"/>
	<path class="st0" d="M1283.96,617.64h-21.62c-0.2-2.31-0.4-4.41-0.65-7.07c-1.81,1.25-3.31,2.41-4.92,3.41
		c-11.09,6.87-22.62,7.37-34.11,1.4c-9.23-4.82-12.39-13.34-11.64-23.18c0.75-10.13,6.32-17.16,16-20.42
		c10.23-3.51,20.67-3.11,31.05-0.55c1.05,0.25,2.11,0.4,3.16,0.65c1.2-6.32-1.76-11.54-7.57-13.39c-5.37-1.71-10.94-1.66-16.4-0.65
		c-4.51,0.85-8.88,2.21-13.79,3.41c-0.9-2.66-1.91-5.52-2.86-8.43c-0.9-2.76-1.76-5.57-2.66-8.58c4.82-2.61,9.68-3.96,14.7-5.02
		c9.28-2.01,18.66-2.51,27.94-0.4c14.25,3.31,22.07,11.89,23.18,27.74c0.75,10.84,0.25,21.77,0.3,32.66c0,6.07,0,12.09,0,18.46
		L1283.96,617.64z M1262.34,586.34c-4.06-2.66-12.44-3.86-16.2-3.31c-3.26,0.5-6.57,0.95-9.33,3.06
		c-5.62,4.36-5.32,12.34,0.75,15.65c6.27,3.41,12.59,2.31,18.36-1c5.27-3.01,7.37-7.98,6.37-14.4H1262.34z"/>
	<path class="st0" d="M1332.47,433.65c0.3-7.88-2.86-12.09-9.53-13.85c-8.03-2.16-15.7-0.3-23.38,1.66
		c-1.61,0.4-3.11,1.05-5.22,1.76c-1.86-5.72-3.71-11.34-5.62-17.06c5.47-3.21,10.99-4.56,16.55-5.57c8.38-1.5,16.9-2.01,25.23-0.2
		c15.8,3.46,23.13,12.84,24.23,29.19c0.5,7.32,0.1,14.75,0.1,22.12c0,7.93,0,15.85,0,23.78c0,1.25,0,2.51,0,3.96h-21.77
		c-0.15-2.26-0.35-4.56-0.55-7.37c-4.72,4.06-9.58,7.17-15.5,8.18c-8.98,1.56-17.66,1.15-25.43-4.21
		c-7.93-5.47-10.53-13.49-9.63-22.62c0.9-9.13,5.67-15.7,14.4-19.16c10.53-4.21,21.22-3.91,32-1.4c1.25,0.3,2.51,0.5,4.11,0.85
		L1332.47,433.65z M1333.17,447.09c-4.11-0.8-8.18-1.86-12.34-2.31c-4.06-0.4-8.18,0.15-11.79,2.16c-3.66,2.01-5.72,5.27-5.17,9.58
		c0.5,4.01,2.71,6.92,6.72,7.78c3.01,0.6,6.27,1.1,9.23,0.7c8.18-1.2,14.95-7.02,13.29-17.86L1333.17,447.09z"/>
	<path class="st0" d="M1580.22,447.74c2.41,16.55,20.82,20.07,37.72,7.37c2.16,1.81,4.41,3.61,6.57,5.52
		c2.06,1.81,4.01,3.66,6.17,5.67c-5.82,7.73-13.24,12.39-22.17,13.95c-11.34,2.01-22.42,1.25-32.66-4.87
		c-10.89-6.52-16.9-16.4-18.51-28.64c-1.86-14.45,1.81-27.44,12.64-37.82c13.14-12.59,35.67-13.34,49.51-2.96
		c7.37,5.57,11.49,13.29,13.79,22.07c1.71,6.27,1.66,12.69,1.2,19.71L1580.22,447.74L1580.22,447.74z M1612.28,433.19
		c-0.65-9.43-7.52-16.6-17.26-16.15c-8.43,0.4-14.9,7.67-14.6,16.15H1612.28z"/>
	<path class="st0" d="M1444.93,479.5h-22.17c-0.1-1.5-0.3-2.91-0.3-4.31c0-13.09,0-26.19-0.05-39.33c0-2.36-0.3-4.77-0.9-7.07
		c-1.61-6.22-5.97-9.28-12.64-9.23c-6.47,0.05-11.29,3.46-12.74,9.33c-0.7,2.81-1,5.82-1.05,8.73c-0.1,11.99,0,23.98,0,35.97v5.72
		c-7.52,0-14.65,0-21.77,0c-0.9-3.96-1.15-72.34-0.2-78.96h21.77v10.43c1.76-1.71,2.66-2.61,3.61-3.56
		c8.78-8.78,19.21-10.58,30.55-6.57c9.88,3.51,14.4,11.49,15.8,21.47c0.2,1.66,0.2,3.31,0.2,4.97c0,16.05,0,32.1,0,48.16v4.16
		L1444.93,479.5z"/>
	<path class="st0" d="M1305.03,558.25h-8.93v-19.56h8.93v-19.91h22.82v19.36c6.32,1.15,12.39-0.1,18.61,0.75v19.26h-18.41v7.57
		c0,8.33,0,16.6,0,24.93c0,7.12,2.91,9.38,10.18,8.03c2.36-0.45,4.67-1.05,7.32-1.66c1.05,2.76,0.4,5.67,0.5,8.48
		c0.1,2.91,0,5.87,0,9.18c-10.03,5.32-20.27,6.37-30.8,2.01c-4.11-1.71-6.72-5.12-8.23-9.23c-1.56-4.16-2.11-8.53-2.11-12.99
		c0.05-11.79,0-23.58,0-36.17L1305.03,558.25z"/>
	<path class="st0" d="M1113.71,479.5h-22.37v-107.8c3.86,0,7.47-0.1,11.14-0.1s7.32,0,11.24,0v107.95V479.5z"/>
	<path class="st0" d="M1070.57,479.5h-21.42c-1.05-3.96-1.25-101.68-0.2-107.75h21.62V479.5z"/>
	<path class="st0" d="M1672.07,413.98c5.82-9.98,13.29-15.8,25.28-15v23.02c-1.96,0.35-4.06,0.75-6.17,1.05
		c-8.03,1.15-13.54,5.57-16.4,13.04c-1.81,4.61-2.51,9.58-2.51,14.6c0.05,9.38,0,18.81,0,28.44c-3.71,1-7.37,0.35-10.99,0.45
		c-3.66,0.1-7.27,0-11.14,0v-79.16h21.92V413.98z"/>
	<path class="st0" d="M1384.34,617.69h-21.57v-78.71h21.37C1385.04,542.75,1385.29,610.77,1384.34,617.69L1384.34,617.69z"/>
	<path class="st0" d="M1173.15,420.25c-2.16,6.22-4.26,12.19-6.32,18.16h-45.1c0-0.95-0.05-1.71,0.15-2.31
		c1.76-5.17,3.61-10.33,5.57-15.85H1173.15z"/>
	<path class="st0" d="M1241.57,716.87c-1.15,0.85-2.06,1.45-3.21,2.31c-2.11-1.96-4.16-3.96-6.47-6.12c-0.9,0.7-1.81,1.25-2.61,1.96
		c-4.67,4.31-10.28,4.72-16.05,3.66c-4.06-0.75-6.97-3.66-7.83-7.67c-0.9-4.36-0.75-8.83,3.56-11.89c1.76-1.25,3.56-2.51,5.57-3.91
		c-0.9-1.35-1.81-2.46-2.46-3.76c-1.96-3.91-1.91-7.78,0.85-11.39c2.76-3.61,8.53-4.61,11.44-3.56c3.36,1.15,6.47,2.76,7.17,6.82
		c0.7,4.11-0.2,7.67-3.81,10.18c-1.61,1.1-3.36,2.06-5.52,3.36c3.21,3.31,6.17,6.37,9.73,9.98c1.86-3.51,3.41-6.37,5.07-9.53
		c1.05,0.45,2.16,0.95,3.56,1.56c-1.91,3.51-3.71,6.87-5.77,10.63c2.01,2.21,4.21,4.56,6.82,7.37H1241.57z M1216.94,698.26
		c-1.86,1.2-3.71,2.01-5.12,3.36c-4.56,4.46-2.96,11.09,2.96,13.19c4.82,1.71,10.23-0.3,13.79-5.37
		c-3.66-3.51-7.37-7.07-11.69-11.24L1216.94,698.26z M1219.35,694.85c2.81-2.01,5.07-3.21,6.77-5.02c2.66-2.81,1.55-7.88-1.71-9.43
		c-2.06-0.95-5.52-0.45-7.22,1.05c-2.51,2.31-2.96,4.16-1.45,7.32c0.85,1.76,2.01,3.36,3.61,5.97L1219.35,694.85z"/>
	<path class="st0" d="M968.58,681.55c-0.8,1.15-1.5,2.16-2.21,3.06c-2.91-1.25-5.52-2.46-8.23-3.51
		c-8.43-3.26-20.52,3.16-20.87,14.75c-0.1,3.21,0.15,6.72,1.3,9.68c2.21,5.72,6.67,9.03,12.94,9.48c3.71,0.25,7.42,0.1,10.84-1.56
		c2.06-0.95,3.66-2.36,3.41-5.12c-0.2-2.51,0-5.12,0-8.03h-12.14v-4.01h16.2c0.5,1.91,1.3,14.2,0.65,15.6
		c-0.6,1.25-1.56,2.51-2.71,3.26c-1.81,1.2-3.86,2.36-5.92,2.81c-12.44,2.76-24.03,0.9-28.59-13.79
		c-3.31-10.68,1.81-24.73,16.25-27.79c6.67-1.4,13.14,0,19.16,5.02L968.58,681.55z"/>
	<path class="st0" d="M1309.79,700.26h-12.19c-0.05-1.35-0.15-2.51-0.2-3.86h17.16c0,4.92-0.1,9.68,0.05,14.45
		c0.05,2.01-0.95,3.21-2.36,4.06c-1.86,1.15-3.81,2.36-5.92,2.91c-7.83,2.01-15.7,2.81-22.42-2.96c-6.92-5.92-8.98-13.59-6.92-22.32
		c2.11-8.98,8.13-14.45,16.96-16.05c6.62-1.2,13.14,0.1,18.61,5.22c-0.7,1-1.4,2.01-2.11,2.96c-2.91-1.25-5.52-2.46-8.18-3.46
		c-8.73-3.36-20.92,3.46-20.92,15.25c0,3.06,0.2,6.32,1.3,9.13c2.21,5.72,6.62,9.28,12.94,9.48c3.41,0.1,6.92-0.55,10.28-1.35
		c2.71-0.65,4.31-2.51,4.01-5.72c-0.25-2.36,0-4.72,0-7.67L1309.79,700.26z"/>
	<path class="st0" d="M1122.78,691.84c0.3-3.21,1.76-4.56,5.22-3.21c0,7.22,0,14.7,0,22.22c0,1.81,0.15,3.71-0.25,5.47
		c-1.61,6.67-4.11,10.43-13.59,12.29c-4.36,0.85-11.34-1.35-15.6-4.72c0.55-0.8,1.1-1.66,1.71-2.61c2.91,1.1,5.52,2.36,8.33,3.11
		c5.52,1.45,11.99-0.8,13.95-5.87c0.9-2.36,0.95-4.56,0.6-7.57c-4.21,3.41-8.33,6.22-13.49,5.42c-4.06-0.65-7.52-2.71-10.18-6.02
		c-3.96-4.97-3.86-12.94,0.8-18.21c2.86-3.26,6.72-4.82,11.19-4.92c4.31-0.1,7.57,2.31,11.44,4.61H1122.78z M1101.31,701.87
		c0.1,6.12,4.77,10.73,10.89,10.73c6.32,0,10.84-4.92,11.24-11.19c0.3-5.17-5.97-10.63-11.39-10.38
		C1105.83,691.33,1101.21,695.75,1101.31,701.87z"/>
	<path class="st0" d="M1415.03,693.29v-17.91c1.61-0.1,2.96-0.2,4.61-0.35v43.49c-1.25,0.05-2.61,0.1-4.21,0.2
		c-0.2-1.45-0.35-2.66-0.45-3.76c-0.55-0.1-0.95-0.25-1.15-0.15c-1.1,0.65-2.16,1.35-3.16,2.16c-7.42,5.97-16.75,0.55-19.91-4.46
		c-4.06-6.52-2.56-15.7,2.66-21.27c4.26-4.56,14.55-5.77,18.81-0.55C1412.78,691.38,1413.53,691.89,1415.03,693.29z M1415.24,703.02
		c0.95-7.98-8.08-14.3-15.85-10.84c-6.47,2.86-8.48,13.24-3.51,18.96c1.71,1.96,3.46,3.66,6.37,3.91
		c7.72,0.65,13.09-4.21,12.99-12.09V703.02z"/>
	<path class="st0" d="M377.56,677.14c6.62,0,12.69-0.2,18.76,0c12.19,0.5,15.55,13.39,10.48,20.37c-2.61,3.61-6.12,5.72-10.63,5.82
		c-4.41,0.1-8.78,0-13.54,0v15.05c-1.86,0.1-3.36,0.15-5.07,0.25v-41.54V677.14z M382.38,699.46c4.82,0,8.88,0.2,12.89-0.05
		c5.17-0.35,8.53-3.61,8.83-8.03c0.35-5.62-2.01-9.13-7.78-9.93c-4.41-0.6-9.03-0.1-14-0.1v18.11H382.38z"/>
	<path class="st0" d="M1549.27,676.74c3.86-1.3,4.77,0.7,5.77,2.86c3.86,8.68,7.83,17.31,11.74,25.93
		c1.86,4.11,3.71,8.28,5.57,12.49c-4.11,0.85-4.16,0.9-5.62-2.01c-1.3-2.61-2.51-5.22-3.96-8.28c-6.77,0-13.74,0-20.72,0
		c-1.71,0-2.61,0.85-3.26,2.41c-1.2,2.86-2.61,5.62-3.91,8.48h-4.61c6.47-14.25,12.84-28.19,19.06-41.84L1549.27,676.74z
		 M1560.51,703.52c-1.66-6.92-6.97-17.91-9.88-20.27c-2.91,6.62-5.82,13.19-8.93,20.27H1560.51z"/>
	<path class="st0" d="M1361.91,510.04h23.58v20.17h-23.58V510.04z"/>
	<path class="st0" d="M1590.15,713.31c-0.15,2.06-0.2,3.51-0.3,5.32c-1.15,0.05-2.16,0.1-3.16,0.15c-0.95-1.05-1.3-25.68-0.65-43.29
		c0.6-0.1,1.25-0.3,1.91-0.35c0.5,0,1.05,0.1,2.01,0.25v18.51c7.32-7.83,15.85-8.78,22.17-2.71c6.42,6.22,5.82,17.51,0.75,23.18
		c-5.97,6.62-13.84,6.47-22.77-1.05L1590.15,713.31z M1601.39,715.11c6.67,0.85,11.19-5.67,11.09-11.64
		c-0.1-8.23-6.12-12.54-11.29-12.34c-6.12,0.25-11.19,5.42-11.24,11.94C1589.95,710.3,1594.47,715.11,1601.39,715.11z"/>
	<path class="st0" d="M736.48,714.41v14h-3.86v-39.88c0.85-0.1,2.01-0.2,3.31-0.35c0.3,1.61,0.55,2.96,0.8,4.46
		c9.08-6.72,16.5-7.22,21.72-1.25c6.62,7.52,5.67,16.25,1.3,22.22c-5.17,7.07-12.79,7.27-23.33,0.8L736.48,714.41z M758.45,703.37
		c0.55-7.57-6.27-14.15-14-11.79c-4.36,1.3-7.17,4.46-7.98,8.93c-0.8,4.46-0.15,8.73,3.61,12.04c5.52,4.77,14.5,3.16,17.21-3.31
		C758.05,707.44,758.1,705.33,758.45,703.37z"/>
	<path class="st0" d="M275.63,718.57h-4.46v-43.19c1.15-0.1,2.51-0.15,4.36-0.3v16.85c1.5-1,2.31-1.5,3.06-2.16
		c4.01-3.26,8.43-3.21,12.94-1.4c4.41,1.81,6.22,5.52,6.32,10.03c0.15,6.62,0,13.24,0,19.81c-4.51,0.55-4.72,0.45-4.77-3.26
		c0-4.97-0.15-9.98,0-14.95c0.2-5.72-3.31-8.43-7.88-8.68c-6.07-0.35-9.53,3.66-9.63,8.33c-0.1,6.07,0,12.19,0,18.91L275.63,718.57z
		"/>
	<path class="st0" d="M1352.28,693.39c-0.55-1.15-1.05-2.26-1.76-3.81c3.81-0.8,7.32-1.91,10.94-2.16c2.46-0.15,5.07,0.55,7.42,1.4
		c5.67,2.06,6.27,7.27,6.52,12.19c0.3,5.67,0.05,11.39,0.05,17.46c-1.4,0.1-2.76,0.2-4.21,0.35c-0.4-1.15-0.75-2.16-1.25-3.51
		c-3.81,3.61-8.28,4.11-12.99,3.66c-4.77-0.45-8.13-3.46-8.68-7.73c-0.65-5.02,1.45-8.73,6.17-10.43c3.66-1.3,7.42-1.71,11.29-0.8
		c1.35,0.3,2.81,0.4,4.21,0.55c0.65-4.51-0.6-7.07-4.21-8.33c-2.76-0.95-5.62-1.55-8.53-0.2c-1.45,0.65-3.11,0.9-4.92,1.35
		L1352.28,693.39z M1370.59,705.18c-4.41-2.31-11.24-2.61-14.7-0.85c-2.21,1.15-3.11,3.06-3.41,5.27c-0.25,2.11,1.61,4.41,3.91,5.37
		c7.52,3.16,14.3-1.56,14.15-9.78H1370.59z"/>
	<path class="st0" d="M1009.02,711.5c0.65,0.75,1.3,1.55,1.96,2.26c-4.56,6.72-16.35,7.57-22.42,1.61
		c-6.72-6.57-6.52-16.55-1.25-22.82c4.06-4.77,9.28-6.52,15.3-4.77c6.12,1.76,8.98,6.52,9.98,12.49c0.25,1.4,0,2.91,0,5.02h-23.93
		c1.5,10.99,9.93,13.39,20.32,6.22L1009.02,711.5z M988.35,701.17h19.36c-0.45-6.32-3.31-9.68-8.23-10.08
		C993.72,690.63,989.75,694.09,988.35,701.17z"/>
	<path class="st0" d="M1633.49,705.28c2.66,11.04,10.03,13.09,20.92,6.17c0.7,0.65,1.45,1.3,2.16,2.01
		c-5.82,8.23-19.61,7.88-25.08-0.7c-3.76-5.92-3.51-12.19-0.35-18.26c2.86-5.47,7.67-7.57,13.69-7.22
		c6.42,0.35,11.94,5.77,12.69,12.44c0.15,1.61,0,3.31,0,5.57h-24.08H1633.49z M1653.36,701.22c-1.91-7.62-4.72-10.33-10.33-10.13
		c-5.17,0.2-8.33,3.56-9.38,10.13H1653.36z"/>
	<path class="st0" d="M337.23,711.45c0.75,0.8,1.2,1.35,1.66,1.81c-0.15,0.45-0.15,0.85-0.4,1.1c-6.72,7.47-19.26,6.22-24.33-1.4
		c-3.86-5.77-3.51-11.84-0.9-17.76c2.56-5.77,7.52-8.23,13.79-7.98s11.84,5.22,12.89,11.59c0.3,1.96,0.25,3.96,0.4,6.42h-24.03
		c1.71,10.73,9.28,12.94,20.87,6.17L337.23,711.45z M335.88,701.22c-1.81-7.57-4.67-10.33-10.28-10.13
		c-5.17,0.2-8.28,3.51-9.38,10.13h19.71H335.88z"/>
	<path class="st0" d="M1170.29,705.33h-23.53c0.8,10.43,9.38,12.99,20.47,6.12c0.6,0.5,1.25,1.1,1.86,1.66
		c-0.1,0.45,0,0.9-0.25,1.15c-6.47,7.47-19.36,6.77-24.63-1.56c-3.76-5.92-3.46-12.19-0.25-18.26c2.86-5.47,7.73-7.52,13.74-7.17
		c6.17,0.35,11.69,5.57,12.54,11.94c0.25,1.81,0,3.66,0,6.12L1170.29,705.33z M1146.01,701.52c3.86,0,7.12,0.1,10.43,0
		c3.21-0.1,6.52,0.6,9.73-0.5c-2.21-7.57-4.72-9.98-10.03-9.93C1150.88,691.08,1148.22,693.79,1146.01,701.52z"/>
	<path class="st0" d="M525.59,700.61c1.1-3.26,0.3-5.82-1.76-6.97c-2.46-1.35-5.47-2.11-8.28-2.16c-2.46-0.05-4.92,1.15-7.78,1.91
		c-0.3-0.9-0.6-1.86-1.05-3.21c6.12-2.96,12.09-4.06,18.36-1c3.91,1.91,5.57,5.27,5.72,9.28c0.2,6.62,0.05,13.24,0.05,20.07h-4.41
		c-0.25-0.9-0.5-1.71-0.8-2.76c-0.55,0.2-1.05,0.25-1.45,0.55c-5.52,3.61-12.29,3.81-16.96,0.45c-5.27-3.76-4.77-12.09,1-15.15
		c4.01-2.16,8.33-2.56,12.79-1.71C522.43,700.21,523.89,700.36,525.59,700.61z M526.85,704.88c-4.77-2.31-9.73-2.21-14.75-0.85
		c-2.56,0.7-4.06,2.86-4.01,5.32c0,2.41,1.4,4.41,3.86,5.52c2.26,1.05,4.56,1.3,6.97,0.7c5.32-1.35,7.07-3.61,7.98-10.73
		L526.85,704.88z"/>
	<path class="st0" d="M853.41,687.27c9.33,0.15,15.65,6.82,15.85,16.2c0.2,8.13-6.12,16.05-16.1,16c-10.28,0-16.1-7.02-16.1-16.5
		c0-7.88,6.12-15.95,16.3-15.7L853.41,687.27z M864.55,703.67c0.5-7.47-5.42-12.69-11.64-12.54c-6.32,0.1-11.09,5.12-11.19,11.84
		c-0.1,7.02,5.37,13.04,11.64,12.79C859.48,715.51,864.5,710.09,864.55,703.67z"/>
	<path class="st0" d="M1056.17,703.32c0,9.13-7.22,16.65-15.7,16.35c-8.83-0.25-16.05-7.57-16.1-16.1c-0.1-9.33,6.92-16.4,16.2-16.3
		C1049.65,687.32,1056.22,694.04,1056.17,703.32L1056.17,703.32z M1029.18,703.37c0,7.22,4.56,11.79,11.54,11.74
		c6.62,0,11.29-4.77,11.29-11.54c0-7.02-5.17-12.44-11.74-12.59c-5.42-0.1-11.74,4.67-11.09,12.34V703.37z"/>
	<path class="st0" d="M717.67,703.37c0,9.08-7.27,16.6-15.75,16.3c-8.83-0.3-16-7.62-16.05-16.2c-0.05-9.33,7.02-16.35,16.25-16.25
		C711.2,687.32,717.67,693.99,717.67,703.37z M701.97,715.16c6.72,0,11.39-4.56,11.49-11.34c0.15-7.02-5.02-12.54-11.54-12.79
		c-5.72-0.2-11.64,4.82-11.34,12.14c0.3,7.22,4.46,11.94,11.39,11.94L701.97,715.16z"/>
	<path class="st0" d="M422.81,675.28h3.76v16.5c2.11-1.3,3.56-2.21,5.07-3.11c6.27-3.71,17.21-0.75,17.31,9.83
		c0.05,6.07,0.05,12.19,0.05,18.26c0,0.5-0.2,1.05-0.3,1.76h-3.36c-0.15-0.4-0.45-0.85-0.45-1.35c0-5.17,0.15-10.33-0.1-15.5
		c-0.15-2.46-0.6-5.27-1.91-7.27c-3.41-5.22-12.69-4.01-15,1.81c-0.8,1.96-1.1,4.26-1.15,6.42c-0.15,5.17-0.05,10.28-0.05,15.85
		c-1.25,0.1-2.41,0.2-3.81,0.3v-43.49L422.81,675.28z"/>
	<path class="st0" d="M621.96,718.57h-3.76v-43.24h3.66v16.5c1.96-1.2,3.21-2.01,4.51-2.76c8.83-4.87,17.61-0.1,17.91,9.88
		c0.2,6.42,0,12.84,0,19.61c-1.4,0.05-2.56,0.1-4.11,0.2c0-5.57,0-10.68,0-15.8c0-1.45,0.05-2.96-0.25-4.41
		c-1-4.77-3.91-7.47-8.23-7.27c-4.56,0.15-7.83,1.4-9.28,6.87c-0.4,1.55-0.4,3.26-0.45,4.92c-0.05,2.56,0,5.17,0,7.73v7.83V718.57z"
		/>
	<path class="st0" d="M788.35,713.71c3.61-9.28,6.72-17.21,9.93-25.33h4.26c0.1,0.5,0.3,0.9,0.2,1.15
		c-3.96,9.63-7.83,19.31-11.99,28.84c-1.3,2.96-3.01,5.97-5.32,8.13c-3.26,3.06-7.42,2.26-11.74,0.7c0.4-1.1,0.8-2.16,1.25-3.51
		c1.2,0.35,2.21,0.7,3.21,0.9c2.66,0.55,4.72-0.55,6.22-2.61c1.35-1.86,1.71-3.61,0.5-6.07c-4.26-8.88-8.18-17.96-12.44-27.44
		c1.55-0.1,3.06-0.2,4.61-0.3c3.66,8.28,7.17,16.25,11.29,25.58V713.71z"/>
	<path class="st0" d="M1433.55,727.65c0.9-1.91,1.35-2.86,1.91-3.96c0.95,0.25,1.81,0.5,2.66,0.75c2.66,0.8,4.77-0.2,6.37-2.16
		c1.56-1.91,2.06-3.86,0.75-6.52c-4.31-8.88-8.18-17.91-12.39-27.24c1.45-0.15,2.81-0.3,4.51-0.5c3.66,8.23,7.27,16.4,11.39,25.63
		c3.56-9.08,6.77-17.16,9.93-25.28h4.61c-4.41,10.89-8.73,21.52-13.04,32.15c-1.5,3.71-3.76,6.97-7.98,7.62
		c-2.61,0.4-5.32-0.25-8.68-0.5H1433.55z"/>
	<path class="st0" d="M573,718.57h-4.26c-0.1-0.4-0.4-0.85-0.4-1.35c0-5.72-0.05-11.44,0-17.16c0.05-5.42-3.41-7.62-6.37-8.63
		c-3.51-1.15-8.28,0.5-9.98,4.06c-1.2,2.51-1.71,5.57-1.86,8.43c-0.3,4.77-0.1,9.53-0.1,14.55h-3.76v-30c0.9-0.1,2.06-0.25,3.31-0.4
		c0.35,1.35,0.6,2.36,0.9,3.51c0.6-0.15,1.25-0.15,1.61-0.45c2.36-2.16,4.82-3.66,8.18-4.01c6.32-0.6,12.49,3.96,12.69,11.44
		c0.15,6.47,0,12.89,0,19.96L573,718.57z"/>
	<path class="st0" d="M244.73,718.52h-5.17v-37.27h-13.9c-0.1-1.4-0.2-2.56-0.3-3.96h32.56v3.76h-13.14v37.47H244.73z"/>
	<path class="st0" d="M889.63,687.42c2.16,0,3.96,0,5.77,0c2.34,0,3.68,1.52,4.01,4.56h-9.58v26.39c-1.81,0.15-3.16,0.3-4.97,0.45
		v-25.63c-1.66-1.66-4.77-0.6-4.61-3.66c0.15-2.71,2.91-1.66,4.06-2.81c1.1-9.03,3.36-11.74,9.88-11.79c4.36,0,4.41,0,4.92,3.56
		C889.53,679.5,889.53,679.55,889.63,687.42L889.63,687.42z"/>
	<path class="st0" d="M604.75,715.06c-0.85,1.56-1.15,2.96-1.86,3.26c-1.81,0.65-3.86,1.35-5.67,1.05c-5.17-0.9-7.62-4.06-7.73-9.68
		c-0.15-5.52,0-11.04,0-16.4c-1.25-1.76-4.51-0.55-4.51-3.51c0-2.66,2.51-2.06,4.21-3.06v-7.98c1.71-0.1,3.21-0.2,4.87-0.25
		c0.15,3.11,0.3,5.77,0.45,8.98c2.26,0,4.26,0,6.22,0c3.01,0.1,3.06,0.2,3.41,4.46h-9.03c-0.7,2.81-1.2,16.85-0.8,19.01
		c0.45,2.31,2.06,3.86,4.51,4.06c1.61,0.15,3.26,0,5.92,0L604.75,715.06z"/>
	<path class="st0" d="M1472.42,714.76c0.9-1.05,1.5-1.71,2.01-2.26c2.96,0.95,5.87,1.56,8.48,2.76c2.36,1.1,4.36,0.25,6.37-0.55
		c3.21-1.3,3.61-5.62,0.7-7.57c-1.3-0.9-3.06-1.1-4.56-1.76c-2.86-1.2-5.87-2.11-8.43-3.76c-3.81-2.41-4.16-7.02-1.3-10.38
		c2.41-2.81,5.47-4.46,9.23-3.96c2.66,0.4,5.32,1.15,7.93,1.96c2.66,0.8,2.16,2.41,0.95,4.11c-11.54-3.51-13.34-3.16-15.7,2.81
		c1.2,2.56,3.51,3.56,6.02,4.31c2.26,0.7,4.56,1.4,6.72,2.41c4.67,2.16,5.67,4.21,4.92,9.23c-0.45,3.11-3.51,6.22-7.17,6.67
		c-5.62,0.7-10.99,0.05-16.05-4.01H1472.42z"/>
	<path class="st0" d="M1075.08,694.09c3.66-3.31,6.42-7.27,11.89-6.72v4.36c-8.58,1.86-12.04,5.92-12.24,14.45
		c-0.1,4.01,0,8.03,0,12.34h-4.67c0-9.53,0-18.86,0-28.24c0-1.76,0.65-2.91,2.41-2.91c1.51,0,2.26,0.95,2.26,2.51
		C1074.73,691.13,1074.93,692.34,1075.08,694.09z"/>
	<path class="st0" d="M1692.79,675.28h4.46v43.24h-4.46V675.28z"/>
	<path class="st0" d="M1671.77,675.28h4.46v43.24h-4.46V675.28z"/>
	<path class="st0" d="M1329.91,675.28h4.46v43.24h-4.46V675.28z"/>
	<path class="st0" d="M676.43,687.37v4.46c-5.42,0.6-9.53,3.21-11.24,8.68c-0.55,1.71-0.9,3.51-1,5.32c-0.15,4.01,0,8.08,0,12.49
		c-1.15,0.15-2.31,0.3-3.76,0.5v-30.3c0.95-0.1,2.11-0.2,3.46-0.35c0.25,2.01,0.45,3.71,0.75,5.97c3.56-3.31,6.42-6.87,11.84-6.82
		L676.43,687.37z"/>
	<path class="st0" d="M486.07,675.28h3.66v43.24c-1.05,0.05-2.21,0.1-3.66,0.2C486.07,718.72,486.07,675.28,486.07,675.28z"/>
	<path class="st0" d="M468.61,718.67h-3.41v-30.35c1.05,0,2.11,0,3.16,0c0,5.02,0,20.07,0.25,30.3V718.67z"/>
	<g>
		<g>
			<g>
				<path class="st0" d="M695.7,367.23c0-0.9-0.1-1.86,0-2.76c0.6-6.17-5.37-13.49-13.29-13.24c-1.25,0-2.56,0-3.86,0
					c-73.09,0-146.12,0-219.16,0v0.05c-73.44,0-146.83,0-220.27,0c-1.45,0-2.96-0.15-4.41,0c-4.01,0.4-7.22,2.21-9.73,5.32
					c-2.41,3.06-2.31,6.47-2.31,9.98c0,87.08,0,174.22,0,261.35c0,0.9,0,1.86,0,2.76c-0.15,3.16,1.2,5.62,3.21,7.98
					c3.66,4.26,8.48,4.61,13.59,4.61c146.43,0,292.9,0,439.38,0c1.45,0,2.96,0.2,4.41,0c5.52-0.7,9.83-3.36,11.74-8.73
					c0.75-2.16,0.7-4.72,0.7-7.07C695.7,540.74,695.7,453.96,695.7,367.23z M416.14,564.82c-2.21-17.41-2.66-34.36-4.56-51.62
					h-56.03c-0.5,0.95-1.3,2.36-2.06,3.76c-6.72,12.99-14.8,25.03-25.83,34.86c-12.89,11.49-27.94,17.56-45.25,17.71
					c-4.77,0.05-9.53-0.5-14.3-0.9c-7.12-0.6-12.64-4.51-18.41-9.28c2.06-2.91,3.96-5.77,6.02-8.48c1.96-2.61,4.06-5.17,6.27-7.93
					c7.02,5.92,15.05,7.73,23.83,6.82c6.22-0.65,11.69-3.16,16.9-6.37c8.33-5.12,15.05-12.04,20.57-19.91
					c4.97-7.07,9.53-14.45,13.54-22.07c17.91-34.21,35.47-68.57,54.43-102.18c0.5-0.95,0.9-2.01,1.76-3.91l-0.1,0.1h-38.12
					c1.71-5.92,3.31-11.34,5.02-17.26c21.47-0.6,42.84,0.1,64.36-0.1c0.5,4.41,1.05,8.53,1.4,12.69c1.2,14.25,2.36,28.54,3.61,42.84
					c1.05,12.24,2.16,24.53,3.31,36.77c1.35,13.9,2.81,27.79,4.06,41.69c0.95,10.28,1.71,20.52,2.56,30.8
					c0.35,3.81,0.8,7.57,1.2,11.49C432.24,557.85,424.52,561.21,416.14,564.82z M454.36,494.14c4.62,0,9.18,0.1,13.74,0
					c9.98-0.2,19.91-0.5,29.85-0.75c1.24,0,2.54,0,4.41,0c-1.5,4.41-2.76,8.03-4.01,11.64c-0.9,2.61-1.91,5.17-2.91,7.88h-47.55
					C450.05,506.58,452.1,500.66,454.36,494.14z M662.89,432.64c-7.73,25.23-15.5,50.41-23.28,75.65
					c-7.47,24.13-14.95,48.31-22.32,72.49c-0.85,2.81-1.45,5.72-1.61,8.63c-0.25,5.72,2.76,8.83,8.58,9.18
					c5.37,0.3,10.68-0.05,15.85-1.76c1.2-0.35,2.41-0.65,4.31-1.15c-0.4,1.45-0.6,2.41-0.95,3.26c-1.35,3.26-3.11,6.32-3.96,9.68
					c-1.2,4.51-4.11,6.32-8.33,7.52c-7.78,2.26-15.55,3.01-23.43,1.05c-9.18-2.26-15.4-9.38-16.75-19.61
					c-1.35-10.13,1.35-19.56,4.21-29.04c5.22-17.01,10.38-34.01,15.5-51.02c0.35-1.2,0.45-2.51,0.75-4.06h-76.5
					c-9.08,29.5-18.16,59.04-27.29,88.69h-25.83c17.11-55.58,34.11-110.61,51.27-166.34c-13.44-0.7-26.29-0.1-39.43-0.5
					c1.71-5.87,3.31-11.24,4.87-16.5c5.17-1.2,57.34-0.9,66.27,0.45c-7.88,24.78-15.7,49.51-23.58,74.24c4.01,1,66.57,1.3,76.85,0.4
					c6.97-22.67,14-45.55,21.02-68.32h25.63C664.09,428.18,663.59,430.44,662.89,432.64z"/>
				<path class="st0" d="M365.92,493.89h44.29c-1.96-25.03-3.91-49.71-5.92-74.89C400.74,424.52,366.08,490.53,365.92,493.89z"/>
			</g>
		</g>
	</g>
	<polygon class="st0" points="465.15,683.11 468.36,683.36 468.31,678.64 468.36,678.34 465.2,678.34 	"/>
</g>
</svg>
