<?xml version="1.0" encoding="utf-8"?>
<!-- Generator: Adobe Adobe Illustrator 29.2.0, SVG Export Plug-In . SVG Version: 6.00 Build 0)  -->
<svg version="1.1" id="Layer_1" xmlns="http://www.w3.org/2000/svg" xmlns:xlink="http://www.w3.org/1999/xlink" x="0px" y="0px"
	 viewBox="0 0 1920 1080" style="enable-background:new 0 0 1920 1080;" xml:space="preserve">
<path d="M9.09,19.83l136.37,0.77l37.32,52.91l54.55-52.15l274.18,0.77l12.92,532.96l-292.12,2.3l-24.4-80.52l-61.73,78.22
	l-56.7-80.52l3.59,83.59l-82.54-0.77L9.09,19.83z"/>
<path d="M540.58,13.7l251.93-0.77l2.15,542.17l-251.93-6.13L540.58,13.7z"/>
<path d="M1606.05,14.46l-2.15,66.72l-32.3-0.77V16l-117.71-3.84l-0.07,1.9l-335-0.75l0.92,42.87
	c-32.77-36.52-85.93-44.02-129.44-44.02l-188.05,4.6v530.67h90.43l9.33-46.01l38.76,46.01h223.22L983.12,289.76
	c0,0,167.23-2.3,167.23-139.56c0-28.91-5.37-51.92-14.48-70.17h26.73l2.15,466.25l231.84-0.77L1393,82.33l58.6-5.89l-16.37,460.25
	l115.56,6.9l6.46-148.77l35.17,0.77l-1.44,151.07l297.15,10.74l22.96-530.67L1606.05,14.46z M933.59,217.68l1.44-75.92
	c0,0,53.11-9.2,53.11,29.91C988.14,215.38,933.59,217.68,933.59,217.68z"/>
<path d="M9.32,574.87l163.41,0.71l44.72,48.9l65.36-48.19l328.54,0.71l15.48,492.58l-350.04,2.13l-29.24-74.42l-73.96,72.29
	l-67.94-74.42l4.3,77.25l-98.91-0.71L9.32,574.87z"/>
<path d="M1910.86,657.08l-73.1,3.54l73.1,56l-77.4,62.36l73.1-0.7v293.41l-372.4-1.41l0.69-132.77
	c-21.9,95.61-139.12,139.5-234.61,139.5c-164.27,0-229.63-142.46-229.63-142.46l112.66-53.86c-4.9-2.31-85.11-48.34-114.7-112.83
	l0.33,122.4c0,87.17-52.47,179.31-215.88,179.31c-126.42,0-222.75-73.71-222.75-184.98l-5.16-314.68l102.35,2.12l4.3,80.8l38.7,1.42
	l0.86-82.22h296.72l0.25,93.98c24.94-60.25,95.03-103.55,220.77-103.55c129.86,0,198.67,65.92,221.03,102.77l-107.51,65.21
	c0,0,111.89,46.1,132.61,143.07l1.55-297.93l374.12,2.12V657.08z"/>
</svg>
