<?xml version="1.0" encoding="utf-8"?>
<!-- Generator: Adobe Adobe Illustrator 29.2.0, SVG Export Plug-In . SVG Version: 6.00 Build 0)  -->
<svg version="1.1" id="Layer_1" xmlns="http://www.w3.org/2000/svg" xmlns:xlink="http://www.w3.org/1999/xlink" x="0px" y="0px"
	 viewBox="0 0 1920 1080" style="enable-background:new 0 0 1920 1080;" xml:space="preserve">
<style type="text/css">
	.st0{font-family:'ClearfaceGothicLTStd-Bold';}
	.st1{font-size:123px;}
	.st2{font-size:298.6642px;}
	.st3{font-size:161.5334px;}
	.st4{letter-spacing:4;}
	.st5{stroke:#385988;stroke-width:3.8087;stroke-miterlimit:10;}
	.st6{font-family:'AinslieSans-ExtDem';}
	.st7{font-size:37.2816px;}
</style>
<path d="M558.19,556.46c-4.07,34.14-9.21,67.65-11.56,101.36c-2.01,28.71-5.71,57.11-9.46,85.57c-1.03,7.8-2.55,15.5-5.08,22.99
	c-1.05,3.1-2.7,4.97-6.13,5.6c-8.92,1.64-17.76,1.45-26.63-0.25c-3.49-0.67-4.99-2.96-5.57-6.13
	c-6.54-35.79-10.28-71.95-14.29-108.08c-4.22-38.04-7.32-76.23-13.87-113.99c-0.36-2.08-0.88-4.13-1.34-6.21
	c-21.6,19.78-33.51,44.14-38.45,72.77c-8.03,46.5-15.07,93.19-25.44,139.26c-1.11,4.95-3.09,9.69-4.47,14.59
	c-1.37,4.87-4.68,7.46-9.41,8.39c-8.04,1.58-16.05,1.43-23.98-0.79c-3.62-1.01-4.69-4-5.61-7.12c-5.01-16.87-5.66-34.38-7.52-51.7
	c-3.59-33.41-5.66-66.95-10.77-100.22c-2.49-16.23-11.19-26.19-25.58-32.75c-12.6-5.74-25.72-9.99-38.6-14.94
	c-7.21-2.77-13.15-6.95-17.59-13.17c-5.91-8.26-3.46-17.25,5.9-21.38c6.39-2.82,13.16-3.45,20.01-1.94
	c17.64,3.9,35.04,9.02,53,11.23c22.17,2.73,44.51,6.01,65.84-4.31c16.17-7.82,30.75-17.84,42.9-31.9
	c-10.08-13.13-22.22-24.01-33.39-35.77c-4.99-5.25-10.23-10.29-14.13-16.44c-5.46-8.62-3.12-14.31,6.92-16.81
	c14.75-3.66,25.6,3.84,36.16,12.6c20.73,17.21,42.24,33.27,70.23,36.15c13,1.34,25.04-2.65,36.6-8.81
	c16.27-8.67,30.59-19.95,45.06-31.17c6.23-4.83,12.55-10.04,20.75-11.91c10.43-2.39,17.83,4.24,16.06,14.88
	c-0.89,5.35-2.82,10.39-6.85,14.13c-12.31,11.4-22,25.28-34.63,36.39c-1.71,1.51-2.97,3.53-4.67,5.59
	c18.27,17.86,36.94,34.89,63.07,38.81c20.14,3.03,40.37,0.47,60.26-3.61c13.31-2.73,26.5-6.09,39.78-9.02
	c6.81-1.5,13.56-1.05,19.97,1.9c9.41,4.32,11.86,13.13,5.79,21.39c-4.88,6.65-11.16,11.52-19.12,14.22
	c-9.45,3.2-18.76,6.8-28.2,10.03c-22.82,7.81-33.89,23.57-36.42,47.74c-3.95,37.66-6.76,75.43-11.26,113.03
	c-1.14,9.5-2.14,19.01-5.07,28.21c-1.29,4.04-3.54,6.4-7.85,7.31c-6.58,1.4-13.12,1.31-19.68,0.52c-5.96-0.71-9.84-3.73-11.93-9.82
	c-5.68-16.58-8.19-33.84-11.55-50.91c-7.35-37.33-13.78-74.86-19.79-112.39c-3.47-21.67-14.5-37.48-27.91-52.96
	c-3.27-3.77-6.33-7.71-10.51-12.82C560.69,542.29,559.51,549.1,558.19,556.46z"/>
<path d="M740.53,414.07c8.44,4.23,29.37,14.42,37.93,18.71c5.35,2.68,8.73,8.73,8.38,14.99c-0.36,6.4-4.4,9.97-9.74,12.24
	c-11.25,4.77-24.26,7.05-35.6,2.86c-12.14-4.48-32.66-14.4-32.66-14.4l-49.99-24.7l-59.09-28.75l-45.39-20.84
	c0,0-20.22-8.64-27.34-11.89c-11.67-5.32-23.55-1.67-34.56,3.49c-15.19,7.13-75.28,39.95-75.28,39.95l-54.67,30.3
	c0,0-31.89,18.49-47.72,27.88c-31.57,18.73-58.89,13.21-86.51,0c-10.6-5.07-31.3-16.64-46.19-25.49
	c-11.03-6.55-17.83-11.42-28.88-17.98c0.92-2.51,2.77-3.24,4.29-4.26c12.48-8.46,24.43-17.89,37.6-25.09
	c28.53-15.6,54.81-34.8,83.07-50.8c17.14-9.7,34.16-19.62,50.93-29.95c13.02-8.01,26.05-15.99,39.37-23.49
	c9.97-5.62,20.59-9.9,31.22-13.97c15.11-5.78,30.09-4.37,45.35,1.32C478.89,286.85,740.53,414.07,740.53,414.07"/>
<path d="M222.29,621.17c0.11-11,0-44.01,0-44.01s18.91,7.04,27.56,10.92c11.91,5.35,24.29,9.75,35.47,16.65
	c14.41,8.91,22.67,21.77,25.59,38.52c4.82,27.7,6.71,55.68,8.68,83.66c0.76,10.8,1.78,21.6,1.35,32.76
	c-3.05-0.24-5.15-2.08-7.35-3.56c-16.36-11-34.31-25.94-52.94-40.37c-7.86-6.09-23.29-20.16-31.06-26.36
	c-7.81-6.23-5.85-13.08-6.62-19.75C221.58,657.59,222.17,633.28,222.29,621.17z"/>
<path d="M545.43,441.82c-5.64,15.7-18.74,23.41-33.17,21.38c-16.96-2.38-26.34-23.05-21.97-36.28
	c5.09-15.41,18.91-23.77,34.13-19.75C539.97,411.27,549,425.87,545.43,441.82z"/>
<path d="M400.89,510.94c-8.13,9.22-17.76,13.15-29.37,9.84c-10.81-3.08-17.9-10.3-20.61-21.37c-2.88-11.77,2.51-24.11,13.16-30.6
	c10.61-6.46,23.34-5.36,33.09,2.86c9.28,7.82,12.57,20.57,8.02,31.71C404.14,505.9,402.51,508.17,400.89,510.94z"/>
<path d="M678.52,476.32c7.94,12.82,7.6,24.65-0.71,34.7c-7.92,9.58-20.28,13.12-31.59,9.05c-11.49-4.14-19.42-15.53-19.16-27.51
	c0.25-11.14,7.99-22.01,18.55-26.05C657.26,462.07,668.75,465.39,678.52,476.32z"/>
<g>
	<text transform="matrix(1 0 0 1 834.4133 369.4512)" class="st0 st1">Midland</text>
	<text transform="matrix(1 0 0 1.02 826.321 625.8753)" class="st0 st2">Habitat</text>
	<text transform="matrix(1 0 0 1 834.1149 772.2549)"><tspan x="0" y="0" class="st0 st3">for Hu</tspan><tspan x="409.81" y="0" class="st0 st3 st4">manity</tspan></text>
</g>
<circle cx="376.78" cy="492.72" r="30.42"/>
<circle cx="654.13" cy="492.72" r="30.14"/>
<ellipse cx="514.96" cy="434.84" rx="31.25" ry="30.14"/>
<g>
	<circle class="st5" cx="1742.53" cy="680.67" r="24.27"/>
	<text transform="matrix(1.02 0 0 0.95 1729.48 693.4092)" class="st6 st7">R</text>
</g>
</svg>
