<?xml version="1.0" encoding="utf-8"?>
<!-- Generator: Adobe Adobe Illustrator 29.2.0, SVG Export Plug-In . SVG Version: 6.00 Build 0)  -->
<svg version="1.1" id="Layer_1" xmlns="http://www.w3.org/2000/svg" xmlns:xlink="http://www.w3.org/1999/xlink" x="0px" y="0px"
	 viewBox="0 0 1920 1080" style="enable-background:new 0 0 1920 1080;" xml:space="preserve">
<style type="text/css">
	.st0{fill:#FFFFFF;stroke:#FFFFFF;stroke-miterlimit:10;}
	.st1{fill:#FFFFFF;}
	.st2{font-family:'MerlodNorme-Bold';}
	.st3{font-size:125px;}
</style>
<g>
	<path class="st0" d="M960,90.82c23.41,0,45.55,18.62,45.55,33.12c0,21.08-23.82,28.83-22.15,34.9c1.5,5.46,19.61,5.61,22.15,10.67
		c2.21,4.39-4.87,15.15,0,14.51c155.29-20.44,323.93-59.61,398.06-54c5.96,0.45,17.51-0.47,22.04,9.22
		c4.06,8.69-10.08,22.97-13.72,26.94c-32.57,35.53-89.26,51.45-136.29,62.02c-29.72,6.68-120.24,13.87-150.19,8.31
		c-29.95-5.56-98.18-15.74-119.91-30.51c-6.35-4.32-7.65,29.85,0,30.51c105.54,9.17,311.22,27.94,398.06,80.85
		c12.32,7.5,15.19,10.78,15.1,16.96c-0.09,5.9-5.97,11.29-17.6,18.15c-45.41,26.76-252.69,26.51-296.35,8.88
		c-28.52-11.51-63.67-27.27-94.7-51.75c-14.22-11.22-14.57-20.27-14.57-29.81c0-13.87-17.3-13.34-17.3,0.87
		c0,18.2,9.05,16.44,9.05,48.49c0,28.21-18.32,23.15-18.32,32.2c0,56.81-0.52,170.74-0.52,220.63c0,37.53,18.3,115.9,18.3,159.85
		c0,24.93-3.98,42.55-27.06,42.55c-21.65,0-27.45-16.9-27.45-42.55c0-37.32,18.93-122.3,18.93-159.85
		c0-49.65,0.09-163.33,0.09-220.63c0-8.9-18.25-3.65-18.25-32.2c0-31.9,8.96-30.66,8.96-48.49c0-14.07-17.71-13.91-17.71-0.87
		c0,9.2-0.34,18.41-16.33,29.81c-31.13,22.2-67.39,43.24-92.27,51.75c-71.87,24.6-251.73,18.18-296.31-9.88
		c-5-3.15-17.56-8.29-17.56-16.65c0-11.02,12.14-14.49,17.56-17.46c88.87-48.75,295.21-71.1,396.31-80.85
		c8.8-0.85,5.71-36.71,0-30.51c-19.76,21.44-80.79,26.34-111.7,30.51c-30.19,4.07-122.15-2.23-151.99-8.31
		c-45.53-9.28-105.31-35.67-142.68-63.29c-5.43-4.01-18.07-16.41-15.19-25.68c1.99-6.42,14.07-9.92,25.25-9.22
		c90.6,5.7,222.19,14.02,396.31,53.35c4.79,1.08-2.16-9.45,0-13.86c2.39-4.87,20.15-5.45,21.61-10.67c1.64-5.9-21.61-14-21.61-34.9
		C915.61,109.44,937.76,90.82,960,90.82z"/>
	<text transform="matrix(1 0 0 1 459.0062 959.0522)" class="st1 st2 st3">I-20 WILDLIFE preserve</text>
</g>
</svg>
