<?xml version="1.0" encoding="utf-8"?>
<!-- Generator: Adobe Adobe Illustrator 29.2.0, SVG Export Plug-In . SVG Version: 6.00 Build 0)  -->
<svg version="1.1" id="Layer_1" xmlns="http://www.w3.org/2000/svg" xmlns:xlink="http://www.w3.org/1999/xlink" x="0px" y="0px"
	 width="1920px" height="1080px" viewBox="0 0 1920 1080" style="enable-background:new 0 0 1920 1080;" xml:space="preserve">
<style type="text/css">
	.st0{fill:#FFFFFF;}
</style>
<g>
	<path class="st0" d="M921.72,475.02c-7.89-42.63-9.9-140.07,28.86-147.25c20.93-3.87,47.24,6.41,43.12,33.71
		c-2.76,18.26-15.19,56.53-8.3,93.74c0.57,3.1,1.78,5.28,2.35,8.38c47.83-122.7,111.6-202.66,210.13-237.74
		c8.24-3.12,17.4-5.63,23.6-6.77c8.53-1.58,14.24-1.03,14.81,2.06c1.72,9.3-45.71,38.93-91.99,96.41
		c-45.01,55.63-83.32,117.24-118.31,218.33c-4.83,12.92-14.44,25.92-33.82,29.51C953.41,572.56,930.48,522.3,921.72,475.02z"/>
	<g>
		<path class="st0" d="M883,558.67c-0.31,34.46-18.83,55.72-30.88,53.51c-27.87-5.14-45.81-157.68-52.26-211.33
			c-1.78-14.78,49.16-33.96,55.42-21.75C868.57,404.99,883.29,527,883,558.67z"/>
	</g>
	<path class="st0" d="M812.95,342.49c-15.82-2.9-47.36-21.94-42.52-48.32c4.71-25.6,19.59-30.64,30.33-29.44
		c23.62,2.65,53.97,29.5,46.68,55.29C844.37,330.88,834.04,346.38,812.95,342.49z"/>
	<path class="st0" d="M683.67,659.1c-0.61-12.99,21.8-19.22,32.3-20.37c13.12-1.44,34.14-0.93,36.75,14.78
		c2.32,13.96,3.77,21.5,4.27,25.42c7.24,57.34,27.8,118.7,114.41,109.18c92.74-10.19,194.62-106.39,269.38-199.6
		c35.83-44.67,67.56-78.25,78.05-79.41c1.75-0.19,2.72,0.59,2.91,2.34c1.34,12.25-8.87,36.33-20.06,56.85
		c-24.78,45.42-183.2,277.16-322.31,292.44C755.14,874.37,688.09,753.01,683.67,659.1z"/>
</g>
</svg>
