<?xml version="1.0" encoding="utf-8"?>
<!-- Generator: Adobe Adobe Illustrator 29.2.0, SVG Export Plug-In . SVG Version: 6.00 Build 0)  -->
<svg version="1.1" xmlns="http://www.w3.org/2000/svg" xmlns:xlink="http://www.w3.org/1999/xlink" x="0px" y="0px" width="1920px"
	 height="1080px" viewBox="0 0 1920 1080" style="enable-background:new 0 0 1920 1080;" xml:space="preserve">
<style type="text/css">
	.st0{fill:#FFFFFF;}
	.st1{font-family:'BCAlphapipeRB-Regular';}
	.st2{font-size:80.574px;}
	.st3{letter-spacing:-4;}
</style>
<g id="Layer_1">
	<g id="Layer_12">
		<g id="Layer_13">
			<g id="Layer_14">
			</g>
		</g>
		<path class="st0" d="M839.48,597.06c-0.67-6,9.53-9.57,14.37-10.42c6.04-1.07,15.81-1.46,17.49,5.75c1.5,6.4,2.4,9.86,2.75,11.66
			c5.08,26.38,16.47,54.22,56.36,47.19c42.71-7.52,87.06-55.21,118.93-100.7c15.27-21.8,28.97-38.33,33.81-39.19
			c0.81-0.14,1.28,0.19,1.42,1c0.99,5.64-3.02,17.12-7.59,26.97c-10.12,21.81-76.62,134.08-140.68,145.36
			C879.12,694.75,844.36,640.48,839.48,597.06z"/>
		<g>
			<path class="st0" d="M932.49,547.27c0.89,15.99-7.05,26.41-12.71,25.75c-13.08-1.54-26-71.75-30.61-96.44
				c-1.27-6.8,21.78-17.23,25.05-11.76C921.16,476.42,931.67,532.57,932.49,547.27z"/>
		</g>
		<path class="st0" d="M893.48,449.11c-7.42-0.87-22.63-8.75-21.18-21.13c1.41-12.01,8.16-14.8,13.18-14.57
			c11.03,0.52,25.92,12.06,23.32,24.24C907.71,442.78,903.38,450.28,893.48,449.11z"/>
		<path class="st0" d="M944.2,515.85c-4.95-19.54-8.82-64.67,8.94-69.17c9.59-2.43,22.11,1.55,21.02,14.33
			c-0.73,8.55-5.34,26.68-1.02,43.73c0.36,1.42,0.98,2.4,1.34,3.82c18.49-58.35,45.65-97.36,90.3-116.6
			c3.73-1.7,7.9-3.13,10.74-3.85c3.91-0.99,6.57-0.91,6.93,0.51c1.08,4.26-20.03,19.44-39.76,47.49
			c-19.2,27.16-35.11,56.89-48.29,104.83c-1.85,6.14-5.92,12.46-14.8,14.71C961.84,560.13,949.69,537.51,944.2,515.85z"/>
	</g>
</g>
<g id="media">
	<text transform="matrix(1 0 0 1 1380.5624 674.3541)" class="st0 st1 st2 st3">media</text>
</g>
<g id="e">
	<path class="st0" d="M1520.29,549.82c0-38.94,30-69.73,69.46-69.73c19.21,0,35.26,7.37,45.52,16.84c2.37,2.1,3.95,5,3.95,8.16
		c0,2.63-0.79,5-3.42,7.89l-46.83,56.04c-2.11,2.37-4.47,3.42-7.37,3.42c-5.79,0-10-3.95-10-9.47c0-2.37,0.53-4.74,2.37-6.58
		l41.05-48.41c-6.84-5.79-16.58-8.42-25.26-8.42c-26.84,0-48.15,22.1-48.15,50.26c0,27.89,21.05,50.26,48.15,50.26
		c15,0,26.84-6.58,34.99-15.79c2.89-2.63,5.26-4.74,8.95-4.74c6.05,0,10.52,4.21,10.52,10c0,2.1-1.31,5-3.16,7.1
		c-11.05,13.16-29.21,22.89-51.31,22.89C1550.55,619.55,1520.29,588.76,1520.29,549.82z"/>
</g>
<g id="s">
	<path class="st0" d="M1438.99,577.45c3.42,0,7.63,2.11,8.95,6.32c2.37,7.37,9.21,16.84,23.42,16.84c12.63,0,20.79-9.21,20.79-19.21
		c0-13.16-10.52-19.21-24.47-23.94c-18.15-6.05-36.57-13.16-36.57-39.2c0-21.58,17.1-38.15,40.52-38.15
		c22.1,0,40.78,13.68,40.78,31.57c0,5.26-4.21,9.47-9.47,9.47c-2.89,0-7.63-1.32-9.21-7.37c-1.84-6.84-9.73-15-22.1-15
		c-12.89,0-20.26,9.21-20.26,19.47c0,13.94,12.63,18.68,28.15,23.68c16.58,5,33.68,14.21,33.68,38.94
		c0,20.79-17.89,38.68-41.84,38.68c-22.89,0-41.84-15.52-41.84-32.63C1429.52,581.66,1433.73,577.45,1438.99,577.45z"/>
</g>
<g id="u">
	<path class="st0" d="M1306.39,491.15c0-5.79,4.47-10.53,10.53-10.53c5.79,0,10.52,4.74,10.52,10.53v68.15
		c0,26.84,16.31,40.78,36.57,40.78c20.52,0,36.84-13.95,36.84-40.78v-68.15c0-5.79,4.47-10.53,10.53-10.53
		c5.79,0,10.52,4.74,10.52,10.53v67.36c0,38.15-25.52,61.04-57.89,61.04c-32.1,0-57.62-22.89-57.62-61.04V491.15z"/>
</g>
<g id="m_00000080193955392030651990000008784603408039638148_">
	<path class="st0" d="M1119.57,531.14c0-32.89,21.58-51.05,48.41-51.05c17.1,0,30.52,6.31,38.15,19.21
		c7.37-12.89,22.1-19.21,37.89-19.21c27.1,0,48.68,18.16,48.68,51.05v77.1c0,6.05-4.74,10.79-10.53,10.79
		c-6.05,0-10.52-4.74-10.52-10.79v-77.36c0-20.79-12.1-31.31-27.63-31.31c-15.26,0-27.37,10.52-27.37,31.31v77.36
		c0,6.05-4.74,10.79-10.52,10.79c-6.05,0-10.53-4.74-10.53-10.79v-77.36c0-20.79-12.1-31.31-27.63-31.31
		c-15.26,0-27.37,10.52-27.37,31.31v77.36c0,6.05-4.74,10.79-10.52,10.79c-6.05,0-10.53-4.74-10.53-10.79V531.14z"/>
</g>
<g id="h">
	<path class="st0" d="M675.96,441.15c0-5.79,4.47-10.52,10.52-10.52c5.79,0,10.53,4.74,10.53,10.52v55.26
		c8.42-8.95,21.84-16.31,39.21-16.31c30.79,0,55.26,22.63,55.26,60.78v67.36c0,6.05-4.74,10.79-10.52,10.79
		c-6.05,0-10.52-4.74-10.52-10.79v-67.89c0-27.1-16.31-40.78-36.84-40.78c-20,0-36.57,13.42-36.57,40.78v67.89
		c0,6.05-4.74,10.79-10.53,10.79c-6.05,0-10.52-4.74-10.52-10.79V441.15z"/>
</g>
<g id="t">
	<path class="st0" d="M566.51,492.46c0-5.52,4.47-9.74,9.74-9.74h13.95v-23.68c0-6.05,4.74-10.52,10.52-10.52
		c6.05,0,10.52,4.47,10.52,10.52v23.68h34.73c5.26,0,9.74,4.21,9.74,9.74c0,5.26-4.47,9.74-9.74,9.74h-34.73v59.46
		c0,24.47,13.95,37.63,34.73,37.63c5.26,0,9.74,4.47,9.74,9.74c0,5.52-4.47,10-9.74,10c-32.63,0-55.78-22.1-55.78-57.36V502.2
		h-13.95C570.98,502.2,566.51,497.72,566.51,492.46z"/>
</g>
<g id="r">
	<path class="st0" d="M497.32,536.93c0-33.94,21.58-56.83,54.2-56.83c5.26,0,9.74,4.21,9.74,9.74c0,5.26-4.47,9.74-9.74,9.74
		c-19.47,0-33.15,12.89-33.15,37.36v71.31c0,6.05-4.74,10.79-10.53,10.79c-6.05,0-10.52-4.74-10.52-10.79V536.93z"/>
</g>
<g id="i">
	<path class="st0" d="M459.96,450.1c0-7.37,5.79-13.16,13.16-13.16c7.1,0,13.16,5.79,13.16,13.16c0,7.1-6.05,13.16-13.16,13.16
		C465.75,463.25,459.96,457.2,459.96,450.1z M462.59,491.15c0-5.79,4.47-10.53,10.53-10.53c5.79,0,10.52,4.74,10.52,10.53v117.09
		c0,6.05-4.74,10.79-10.52,10.79c-6.05,0-10.53-4.74-10.53-10.79V491.15z"/>
</g>
<g id="m">
	<path class="st0" d="M275.78,531.14c0-32.89,21.58-51.05,48.41-51.05c17.1,0,30.52,6.31,38.15,19.21
		c7.37-12.89,22.1-19.21,37.89-19.21c27.1,0,48.68,18.16,48.68,51.05v77.1c0,6.05-4.74,10.79-10.52,10.79
		c-6.05,0-10.52-4.74-10.52-10.79v-77.36c0-20.79-12.1-31.31-27.63-31.31c-15.26,0-27.36,10.52-27.36,31.31v77.36
		c0,6.05-4.74,10.79-10.52,10.79c-6.05,0-10.52-4.74-10.52-10.79v-77.36c0-20.79-12.1-31.31-27.63-31.31
		c-15.26,0-27.37,10.52-27.37,31.31v77.36c0,6.05-4.74,10.79-10.52,10.79c-6.05,0-10.53-4.74-10.53-10.79V531.14z"/>
</g>
</svg>
