<?xml version="1.0" encoding="utf-8"?>
<!-- Generator: Adobe Adobe Illustrator 29.2.0, SVG Export Plug-In . SVG Version: 6.00 Build 0)  -->
<svg version="1.1" id="Layer_1" xmlns="http://www.w3.org/2000/svg" xmlns:xlink="http://www.w3.org/1999/xlink" x="0px" y="0px"
	 width="1920px" height="1080px" viewBox="0 0 1920 1080" style="enable-background:new 0 0 1920 1080;" xml:space="preserve">
<style type="text/css">
	.st0{fill:#E62E2D;}
</style>
<g>
	<g>
		<g>
			<path class="st0" d="M934.94,140.89l-1.44,75.92c0,0,54.55-2.3,54.55-46.01C988.05,131.69,934.94,140.89,934.94,140.89z"/>
			<path class="st0" d="M0,0v1080h1920V0H0z M792.41,12.06l2.15,542.17l-251.93-6.13l-2.15-535.26L792.41,12.06z M145.37,19.73
				l37.32,52.91l54.55-52.15l274.18,0.77l12.92,532.96l-292.12,2.3l-24.4-80.52l-61.73,78.22l-56.7-80.52l3.59,83.59l-82.54-0.77
				L9,18.96L145.37,19.73z M276.71,1070.82l-29.24-74.42l-73.96,72.29l-67.94-74.42l4.3,77.25l-98.91-0.71L9.23,574l163.41,0.71
				l44.72,48.9l65.36-48.19l328.54,0.71l15.48,492.58L276.71,1070.82z M1910.77,656.21l-73.1,3.54l73.1,56l-77.4,62.36l73.1-0.7
				v293.41l-372.4-1.41l0.69-132.77c-21.9,95.61-139.12,139.5-234.61,139.5c-164.27,0-229.63-142.46-229.63-142.46l112.66-53.86
				c-4.9-2.31-85.11-48.34-114.7-112.83l0.33,122.4c0,87.17-52.47,179.31-215.88,179.31c-126.42,0-222.75-73.71-222.75-184.98
				l-5.16-314.68l102.35,2.12l4.3,80.8l38.7,1.42l0.86-82.22h296.72l0.25,93.98c24.94-60.25,95.03-103.55,220.77-103.55
				c129.86,0,198.67,65.92,221.03,102.77l-107.51,65.21c0,0,111.89,46.1,132.61,143.07l1.55-297.93l374.12,2.12V656.21z
				 M1888.04,556.53l-297.15-10.74l1.44-151.07l-35.17-0.77l-6.46,148.77l-115.56-6.9l16.37-460.25l-58.6,5.89l3.59,463.18
				l-231.84,0.77l-2.15-466.25h-26.73c9.11,18.25,14.48,41.26,14.48,70.17c0,137.26-167.23,139.56-167.23,139.56l180.87,257.67
				H940.68l-38.76-46.01l-9.33,46.01h-90.43V15.89l188.05-4.6c43.51,0,96.67,7.5,129.44,44.02l-0.92-42.87l335,0.75l0.07-1.9
				l117.71,3.84v64.41l32.3,0.77l2.15-66.72L1911,25.86L1888.04,556.53z"/>
		</g>
	</g>
</g>
</svg>
